<?xml version="1.0" standalone="no"?>
<!DOCTYPE svg PUBLIC "-//W3C//DTD SVG 20010904//EN"
 "http://www.w3.org/TR/2001/REC-SVG-20010904/DTD/svg10.dtd">
<svg version="1.0" xmlns="http://www.w3.org/2000/svg"
 width="795.000000pt" height="795.000000pt" viewBox="0 0 795.000000 795.000000"
 preserveAspectRatio="xMidYMid meet">
<metadata>
Created by potrace 1.11, written by Peter Selinger 2001-2013
</metadata>
<g transform="translate(0.000000,795.000000) scale(0.100000,-0.100000)"
fill="#000000" stroke="none">
<path d="M3587 7454 c-1 -1 -45 -4 -97 -8 -1002 -67 -1928 -797 -2219 -1750
-12 -38 -24 -82 -27 -99 -2 -17 -7 -33 -9 -37 -8 -12 -44 -244 -50 -320 -12
-141 -7 -374 10 -490 25 -166 42 -246 76 -365 20 -70 73 -222 89 -260 78 -177
147 -306 223 -420 22 -33 40 -66 40 -73 0 -6 2 -10 5 -7 3 2 18 -15 35 -38 17
-23 34 -43 39 -45 4 -2 8 -8 8 -13 0 -6 9 -19 20 -31 10 -12 17 -26 13 -31 -3
-6 -1 -7 4 -4 6 4 18 -5 27 -18 9 -14 52 -62 94 -106 42 -45 76 -85 75 -90 -2
-5 0 -8 5 -8 20 3 23 -3 11 -18 -11 -15 -11 -16 1 -5 19 17 33 15 26 -4 -3 -8
-2 -13 3 -9 5 3 15 0 23 -7 7 -7 31 -29 53 -47 22 -19 39 -39 37 -44 -1 -5 2
-6 7 -3 5 4 15 0 23 -7 7 -7 34 -28 61 -46 26 -18 45 -36 42 -40 -2 -5 3 -8
13 -7 9 0 16 -4 15 -9 -1 -6 8 -12 20 -12 12 -1 23 -7 25 -13 2 -5 8 -8 13 -4
5 3 9 -3 9 -12 0 -10 3 -14 6 -11 11 10 45 -13 38 -25 -4 -6 -3 -8 4 -4 13 8
103 -39 94 -49 -4 -5 1 -5 10 -2 17 6 35 -7 21 -16 -5 -2 -2 -2 5 -1 14 4 135
-50 128 -57 -3 -3 3 -5 12 -6 9 -1 26 -4 37 -6 11 -3 24 -6 28 -6 5 -1 5 -5 2
-11 -3 -6 1 -7 10 -4 9 4 25 -2 37 -12 15 -13 19 -14 14 -4 -7 13 -6 13 6 0 7
-8 26 -16 43 -17 16 -2 31 -7 33 -12 2 -6 9 -8 16 -5 7 3 26 -1 42 -7 16 -7
37 -11 47 -10 10 1 17 -4 17 -13 0 -9 5 -16 11 -16 5 0 8 4 4 9 -3 6 4 9 15 8
11 -1 20 -8 20 -17 0 -10 3 -11 8 -3 13 21 47 8 69 -27 18 -28 22 -31 20 -13
0 12 -4 20 -8 17 -4 -2 -10 3 -13 12 -5 12 -2 15 11 9 18 -7 85 -15 130 -17
13 0 20 -4 17 -9 -8 -13 10 -11 25 4 11 10 12 7 7 -13 -6 -22 -5 -23 6 -9 10
12 27 16 61 14 27 -2 51 -6 55 -11 4 -4 -2 -4 -13 0 -17 6 -18 5 -7 -6 11 -11
16 -10 28 6 7 11 17 17 20 13 4 -4 1 -13 -6 -22 -7 -9 -8 -15 -2 -15 6 0 12 6
15 13 3 7 9 2 15 -13 6 -14 11 -18 11 -10 1 9 -4 21 -11 28 -9 9 -7 12 11 12
15 0 20 -4 15 -12 -6 -10 -5 -10 7 -1 19 15 91 15 82 0 -4 -7 1 -6 10 1 9 8
25 11 37 7 11 -3 20 -2 20 3 0 11 39 4 57 -10 8 -6 19 -5 30 2 16 10 15 10 -4
5 -13 -4 -23 -2 -23 3 0 5 15 8 33 7 17 -1 44 2 60 6 16 5 25 4 22 -2 -4 -5 0
-9 9 -9 8 0 17 -6 20 -12 3 -7 3 -3 0 10 -7 29 0 28 38 -8 34 -33 37 -34 58
-19 12 8 10 9 -8 4 -21 -6 -22 -5 -10 14 7 12 16 21 21 21 4 0 5 -5 1 -12 -4
-6 -3 -9 2 -6 12 8 35 -17 26 -28 -4 -4 -1 -4 6 0 11 6 9 13 -8 31 -21 22 -70
31 -70 13 0 -5 4 -6 10 -3 6 3 10 2 10 -4 0 -20 -18 -20 -35 -1 -20 22 -21 21
51 25 23 1 49 5 59 9 12 4 16 2 12 -7 -3 -9 2 -13 15 -13 12 1 23 -6 26 -14 5
-13 3 -13 -12 -1 -9 8 -16 10 -15 5 4 -20 -2 -35 -11 -29 -6 4 -7 -1 -3 -11 5
-14 8 -13 19 7 7 13 13 20 14 14 0 -5 5 -4 12 3 8 8 8 15 -2 27 -8 9 -8 15 -2
15 6 0 16 -8 21 -17 6 -10 11 -13 11 -7 0 20 50 13 65 -9 8 -12 15 -16 15 -10
0 19 -32 38 -63 38 -17 0 -32 6 -34 12 -3 8 5 10 22 7 20 -3 25 -1 19 8 -5 8
-1 7 11 -2 11 -9 16 -10 11 -2 -4 8 -1 13 11 14 33 2 38 3 51 11 7 5 22 5 33
2 16 -5 19 -4 14 5 -6 9 -4 11 5 5 7 -4 15 -2 19 4 4 7 23 13 41 14 25 2 33
-2 36 -17 1 -10 7 -22 12 -25 5 -3 12 -13 15 -21 4 -12 6 -12 6 2 1 9 -5 23
-11 30 -16 16 -22 48 -10 48 4 0 15 -13 23 -29 12 -26 16 -28 32 -17 10 8 20
24 22 36 2 12 10 29 17 37 11 13 14 12 30 -7 11 -14 18 -17 18 -9 0 11 3 11
10 -1 9 -13 11 -13 20 0 5 8 10 10 10 4 0 -6 -7 -17 -15 -24 -12 -10 -15 -10
-15 0 0 8 -3 10 -7 7 -3 -4 -16 -1 -28 7 -35 23 -30 -19 6 -44 16 -12 29 -17
29 -11 0 6 -5 11 -11 11 -5 0 -7 5 -4 10 4 6 10 8 14 5 5 -2 17 2 27 10 10 8
24 14 29 15 6 0 3 -5 -5 -10 -12 -8 -11 -10 8 -10 13 0 22 -6 22 -16 0 -8 5
-12 10 -9 6 3 10 2 10 -4 0 -5 -6 -11 -12 -14 -7 -2 -1 -4 14 -3 14 0 24 4 21
9 -2 4 3 7 12 7 8 0 18 -7 21 -15 4 -8 14 -15 23 -15 9 0 23 -6 30 -12 11 -10
13 -10 7 0 -4 6 -3 12 3 12 5 0 15 -8 20 -17 6 -11 11 -13 11 -5 0 7 5 10 10
7 6 -4 7 -11 4 -17 -4 -6 -2 -8 4 -4 6 3 13 2 17 -4 4 -6 11 -8 16 -4 6 3 9
-2 7 -12 -2 -10 3 -19 10 -20 25 -3 27 -5 12 -14 -11 -7 -7 -8 15 -6 17 2 36
-1 43 -6 9 -8 12 -5 12 8 0 14 2 16 9 6 5 -8 21 -12 38 -11 31 4 69 -23 59
-40 -3 -5 3 -7 15 -4 13 4 27 -2 40 -16 11 -11 24 -21 29 -21 6 0 10 -4 10 -9
0 -6 11 -21 24 -35 14 -16 22 -36 21 -51 l-3 -25 216 0 c187 -1 222 -3 252
-19 19 -9 34 -23 32 -30 -1 -6 3 -11 10 -10 28 3 40 -2 35 -15 -3 -8 1 -13 11
-12 12 1 16 -5 14 -19 -2 -15 -1 -17 6 -6 8 11 17 7 46 -19 19 -18 33 -37 29
-43 -3 -6 -2 -7 4 -4 13 8 45 -31 37 -45 -4 -6 -3 -8 3 -5 26 16 121 -165 155
-293 31 -121 31 -386 -1 -505 -54 -205 -142 -300 -349 -380 -153 -59 -309 -89
-457 -88 -345 1 -670 83 -1049 264 -147 69 -225 128 -289 219 -38 54 -88 156
-80 164 4 3 1 6 -5 6 -11 0 -28 55 -23 79 1 7 -2 10 -8 6 -10 -6 -16 13 -12
43 1 6 -2 12 -7 12 -15 0 -21 37 -8 51 8 9 8 10 -2 5 -12 -7 -34 32 -25 47 2
4 0 7 -4 7 -5 0 -19 34 -33 76 l-24 75 -35 -5 c-60 -9 -94 -16 -147 -32 l-51
-15 44 -177 c24 -97 45 -190 48 -207 5 -38 15 -86 20 -105 3 -8 7 -32 11 -54
3 -21 8 -48 10 -60 2 -11 7 -37 9 -56 3 -19 7 -48 10 -65 2 -16 7 -52 10 -80
4 -27 8 -60 10 -73 5 -29 17 -225 20 -322 3 -95 2 -89 23 -85 9 1 25 -2 35 -7
11 -6 17 -5 17 2 0 6 5 8 11 4 6 -3 36 -6 65 -5 31 0 54 -3 54 -9 0 -14 61
-50 72 -43 5 3 7 11 4 19 -7 17 10 28 18 12 3 -7 4 -4 3 6 -1 10 4 21 11 23 6
3 10 -1 9 -9 -2 -7 -2 -10 0 -6 2 4 11 4 19 1 7 -3 12 -9 9 -13 -3 -5 -1 -11
4 -14 5 -4 8 2 7 11 -2 9 -7 18 -13 20 -6 2 -9 21 -7 43 2 24 -2 43 -12 50
-11 10 -14 10 -14 -1 0 -12 -2 -12 -9 0 -6 9 -11 10 -15 2 -7 -11 5 -15 32
-12 6 1 12 -2 12 -7 0 -16 -27 -21 -41 -9 -10 9 -10 8 1 -6 7 -10 20 -15 27
-12 9 3 13 0 10 -7 -2 -7 -11 -12 -20 -12 -9 1 -15 -2 -12 -6 3 -5 1 -11 -5
-15 -5 -3 -10 4 -9 17 0 13 -2 37 -4 55 -4 29 -2 32 25 31 16 -1 31 -4 33 -9
3 -4 14 -5 25 -2 14 4 20 0 20 -12 0 -13 -3 -15 -13 -7 -10 8 -13 6 -13 -8 0
-14 4 -16 17 -9 25 13 29 11 22 -8 -6 -17 -6 -17 10 -1 18 18 23 33 8 23 -5
-3 -13 0 -17 6 -5 9 1 10 22 4 16 -4 34 -8 41 -8 8 0 9 -6 2 -18 -15 -28 -11
-36 6 -11 11 14 23 20 38 18 12 -3 28 -5 35 -5 7 -1 12 -8 10 -17 -2 -10 4
-19 12 -21 13 -4 13 -3 0 6 -8 6 -13 11 -10 12 3 0 14 2 24 4 11 2 26 -4 34
-13 7 -9 11 -11 7 -4 -4 7 0 12 10 12 9 0 15 -7 13 -16 -2 -10 4 -19 12 -21
12 -4 12 -3 2 5 -20 14 10 23 45 13 15 -4 34 -6 41 -4 6 3 12 -3 12 -12 0 -12
-4 -14 -19 -5 -15 7 -22 7 -27 -2 -4 -7 -4 -10 1 -6 4 4 16 3 26 -2 14 -8 20
-6 28 7 5 10 13 14 17 10 4 -4 2 -13 -4 -19 -7 -7 -12 -17 -12 -22 0 -6 5 -3
11 7 10 18 12 18 30 1 11 -10 19 -12 19 -6 0 7 -4 12 -9 12 -5 0 -11 6 -14 14
-4 10 0 12 14 9 10 -3 19 -9 19 -14 0 -5 7 -9 15 -9 7 0 19 -8 24 -17 6 -10
11 -13 11 -6 0 6 -10 19 -21 27 l-22 15 22 -2 c11 -1 21 -4 21 -7 0 -3 23 -7
52 -8 38 -2 55 -7 65 -22 8 -11 20 -20 26 -20 7 0 4 5 -5 11 -22 13 -23 28 -2
25 27 -4 37 -33 17 -45 -10 -6 -13 -10 -8 -11 20 0 36 17 30 32 -5 13 1 15 37
13 24 -1 58 -3 76 -4 24 -1 31 -5 26 -13 -5 -9 -2 -9 9 1 10 8 17 9 17 3 0 -6
-8 -16 -17 -21 -10 -6 -13 -11 -7 -11 6 0 19 8 28 19 13 14 29 18 69 16 29 -1
58 -5 65 -9 6 -4 21 -2 33 5 12 6 19 7 15 1 -3 -5 1 -13 10 -16 8 -3 12 -2 9
4 -3 6 -3 10 2 11 44 4 61 3 57 -3 -7 -11 4 -10 28 3 15 8 19 8 14 0 -4 -6 -2
-11 3 -11 6 0 11 5 11 10 0 6 4 10 10 10 5 0 9 -10 7 -21 -1 -12 5 -24 13 -26
13 -4 13 -3 0 6 -8 5 -11 13 -7 18 5 4 16 -3 26 -16 10 -13 23 -21 30 -17 14
9 15 36 1 36 -5 0 -10 4 -10 9 0 6 9 9 20 8 15 -1 19 -7 15 -24 -2 -13 1 -23
6 -23 9 0 13 14 10 37 -1 6 3 14 9 18 5 3 10 1 10 -5 0 -6 7 -18 15 -27 9 -8
13 -18 10 -21 -3 -4 -10 0 -15 8 -6 9 -10 10 -10 3 0 -15 17 -26 30 -18 7 4 7
13 0 26 -7 12 -7 19 -1 19 16 0 33 -38 21 -45 -5 -3 -10 -12 -10 -18 0 -7 5
-4 11 6 10 18 11 18 25 0 13 -17 15 -17 27 -1 8 10 18 14 22 10 5 -4 5 -1 0 7
-7 12 -10 11 -21 -4 -8 -10 -15 -17 -17 -14 -15 19 -47 68 -47 72 0 3 15 3 34
0 19 -2 37 0 41 6 16 27 47 0 49 -44 1 -18 36 -22 36 -4 0 8 -6 7 -17 -2 -15
-12 -16 -12 -10 5 4 10 2 25 -4 33 -14 17 -12 19 25 29 23 5 27 4 21 -7 -6 -9
-2 -8 11 3 10 9 35 18 54 21 47 7 78 15 88 21 4 2 13 -4 20 -15 12 -18 3 -27
-12 -12 -10 10 -46 11 -40 1 3 -5 13 -7 21 -6 9 2 18 -3 21 -11 3 -8 0 -11 -7
-7 -7 5 -9 1 -5 -9 4 -11 2 -14 -9 -9 -8 3 -18 1 -22 -5 -13 -21 36 -5 51 17
14 20 17 20 37 7 16 -10 26 -11 37 -4 13 9 12 10 -2 6 -22 -8 -69 29 -61 48 3
8 10 15 15 15 6 0 8 -7 4 -15 -3 -9 3 -19 15 -25 22 -12 43 -4 33 12 -5 8 -1
9 10 5 10 -4 21 -7 24 -7 4 0 0 -4 -8 -10 -8 -5 -11 -12 -7 -17 9 -8 28 17 21
28 -2 4 2 9 8 12 7 2 -3 3 -22 2 -23 -1 -34 -6 -32 -14 2 -9 -3 -11 -13 -7 -9
3 -19 6 -23 6 -3 0 3 7 14 16 10 8 13 12 5 8 -9 -5 -12 -3 -7 5 4 6 13 11 19
10 7 -1 26 4 42 11 17 7 32 14 35 14 3 1 11 5 18 9 6 5 12 5 12 2 0 -3 10 1
22 9 12 9 30 16 39 16 10 0 19 4 21 9 2 5 12 11 23 13 11 1 23 7 26 11 3 4 12
0 20 -9 12 -16 12 -17 -4 -11 -11 4 -16 3 -12 -4 9 -14 45 -1 67 25 9 11 17
16 18 9 0 -6 -4 -14 -10 -18 -5 -3 -6 -13 -3 -21 8 -22 22 2 18 33 -1 14 2 22
9 20 6 -2 10 -12 8 -21 -3 -16 -1 -16 16 1 12 12 16 22 10 30 -7 8 -3 11 11
10 13 -1 20 -6 17 -14 -3 -7 -1 -13 4 -13 5 0 8 13 8 30 -1 27 -2 28 -15 12
-13 -15 -14 -15 -9 0 3 12 -7 8 -40 -14 -25 -17 -48 -27 -51 -24 -8 8 -7 9 61
45 32 17 55 31 50 31 -8 0 37 34 46 35 2 0 14 10 27 22 25 26 53 33 33 8 -7
-8 -17 -12 -23 -8 -6 4 -7 1 -2 -7 6 -9 4 -11 -5 -5 -9 5 -11 4 -6 -3 6 -11
-5 -16 -26 -13 -4 0 -5 -6 -2 -14 4 -8 0 -17 -8 -20 -10 -4 -15 -21 -14 -51 0
-29 3 -39 8 -30 5 9 6 27 4 41 -4 20 -1 25 9 21 10 -3 12 0 8 12 -6 14 -4 15
9 4 13 -10 17 -10 22 4 3 9 3 20 0 26 -9 15 30 5 42 -11 14 -18 33 -7 31 19
-1 10 -5 16 -9 14 -4 -3 -8 0 -8 7 0 6 8 9 19 6 14 -3 18 -1 14 9 -4 10 0 12
13 8 13 -5 10 0 -8 14 -31 26 -38 27 -38 7 0 -8 -4 -15 -10 -15 -19 0 -10 14
35 56 24 24 47 39 50 34 3 -4 -2 -11 -11 -14 -8 -3 -12 -11 -8 -17 5 -8 3 -9
-7 -4 -8 5 -11 4 -6 0 4 -5 18 -10 30 -12 12 -2 24 -8 25 -13 2 -6 8 -10 13
-10 17 0 -2 21 -28 31 -14 5 -24 12 -21 15 3 2 18 -1 34 -7 16 -7 36 -11 43
-10 13 2 13 0 1 -16 -8 -10 -11 -15 -6 -11 5 4 18 3 30 -3 20 -9 20 -9 3 5
-10 8 -18 18 -18 23 1 4 -7 8 -16 8 -9 0 -18 6 -21 13 -2 8 3 10 15 6 15 -5
15 -4 3 5 -8 5 -11 14 -6 18 4 4 15 -2 25 -13 l17 -21 17 29 c18 32 15 48 -9
48 -16 0 -18 9 -5 29 6 9 11 10 15 2 4 -6 4 -11 -1 -11 -4 0 0 -5 10 -11 22
-13 40 -2 32 20 -14 35 -14 53 0 47 9 -3 12 0 8 10 -4 11 -9 12 -19 3 -8 -7
-14 -7 -14 -1 0 5 6 14 13 20 10 9 17 6 29 -8 9 -10 13 -22 10 -27 -4 -4 2 -1
12 8 15 14 16 19 5 37 -10 15 -17 18 -26 11 -9 -8 -11 -5 -10 10 2 26 12 26
37 1 12 -12 25 -18 30 -15 12 8 13 42 1 49 -4 3 -6 -6 -3 -21 3 -18 1 -24 -7
-19 -6 4 -8 13 -5 19 4 7 3 9 -1 4 -5 -4 -19 0 -32 8 -22 15 -29 10 -24 -17 0
-5 -4 -8 -11 -8 -6 0 -8 -3 -5 -7 4 -3 0 -15 -9 -25 -13 -13 -14 -21 -5 -31 6
-8 8 -17 4 -20 -3 -4 0 -13 7 -22 7 -9 10 -18 6 -22 -8 -9 -36 29 -32 43 2 6
0 17 -4 24 -6 9 -1 20 12 32 12 10 18 18 14 18 -8 0 16 46 38 75 15 20 16 20
13 -4 -4 -39 18 -34 43 10 l23 42 14 -26 c8 -17 19 -24 28 -21 8 4 15 8 15 11
0 3 -7 2 -16 -1 -12 -5 -15 -2 -10 9 3 9 2 14 -2 12 -10 -6 -43 31 -33 38 5 2
14 -2 21 -10 7 -8 17 -15 23 -15 6 0 2 6 -9 14 -23 17 -25 53 -3 67 8 5 10 9
5 9 -12 0 14 30 27 30 7 0 7 -4 -1 -12 -7 -7 -12 -17 -12 -23 1 -14 24 26 27
48 2 9 -2 17 -8 17 -5 0 -8 -4 -5 -9 13 -21 -23 -17 -42 4 -17 20 -18 24 -5
29 21 9 23 8 17 -8 -3 -8 -1 -17 5 -21 7 -4 8 0 4 11 -4 11 -3 15 5 10 6 -3
14 -1 18 5 4 8 9 7 16 -2 8 -11 9 -10 5 3 -3 9 -1 19 6 22 9 3 9 5 0 5 -6 1
-18 -6 -27 -14 -8 -9 -17 -11 -21 -6 -3 5 4 16 16 25 17 11 27 13 43 4 12 -6
6 4 -13 21 -20 18 -29 31 -20 31 12 0 12 2 -1 10 -8 5 -19 10 -25 10 -5 0 -3
-5 5 -10 8 -5 11 -10 6 -10 -5 0 -1 -9 10 -21 18 -20 18 -20 -9 -14 -17 5 -27
3 -27 -4 0 -6 8 -8 18 -5 12 4 10 0 -7 -15 -13 -12 -26 -19 -30 -16 -3 3 -1 9
5 13 5 4 9 17 8 30 -1 12 2 25 7 27 4 3 6 14 4 25 -4 21 19 28 30 10 3 -5 11
-10 18 -10 6 0 3 6 -7 13 -16 12 -16 14 -2 26 9 8 16 20 16 27 0 8 6 13 13 11
7 -1 12 8 12 23 0 14 -5 24 -12 23 -6 -1 -14 4 -17 12 -3 8 -1 15 4 15 6 0 10
5 10 10 0 6 -7 6 -19 -1 -16 -11 -17 -14 -3 -30 9 -10 19 -16 24 -13 4 3 8 -4
8 -16 0 -12 -4 -18 -11 -15 -6 4 -13 -2 -16 -14 -6 -23 -11 -25 -32 -12 -9 6
-10 11 -2 15 6 4 11 4 11 -1 0 -4 5 -1 10 9 11 18 3 51 -11 42 -5 -3 -9 4 -9
16 0 15 11 26 35 36 20 8 33 19 30 24 -3 6 -8 10 -11 10 -3 0 -3 -4 0 -8 3 -4
-8 -13 -25 -19 -16 -6 -29 -7 -29 -2 0 5 5 9 10 9 6 0 10 5 10 11 0 5 -4 8 -8
5 -12 -7 -10 117 3 130 14 16 25 7 18 -14 -3 -9 -3 -14 1 -11 13 12 15 49 3
46 -7 -1 -11 3 -10 10 2 7 -4 10 -13 6 -11 -4 -12 -8 -4 -13 9 -5 9 -9 1 -14
-6 -4 -11 -4 -12 1 -10 96 -11 91 23 110 18 9 37 16 41 15 5 -1 6 2 2 8 -4 7
-14 5 -28 -5 -24 -17 -41 -20 -32 -5 3 5 2 18 -4 27 -8 14 -9 11 -6 -14 2 -19
-1 -33 -7 -33 -5 0 -8 6 -5 14 3 8 3 17 0 20 -4 3 -8 18 -9 33 -2 21 -1 24 6
13 6 -9 10 -10 10 -3 0 7 -6 16 -13 20 -8 4 -17 17 -20 28 -7 20 -7 20 8 1 8
-11 15 -15 15 -9 0 7 -7 19 -16 27 -8 9 -16 25 -17 36 -1 11 -4 20 -7 20 -4 0
-7 7 -8 15 -1 8 -3 22 -4 30 -1 8 -5 15 -9 15 -8 0 -24 40 -21 53 1 4 -3 7 -8
7 -6 0 -10 5 -10 10 0 15 40 12 41 -2 0 -7 4 -4 8 7 10 25 3 47 -13 38 -6 -4
-5 1 3 10 9 12 10 17 2 17 -7 0 -9 5 -6 10 3 6 1 10 -5 10 -6 0 -9 4 -6 9 3 5
-1 12 -10 15 -8 3 -12 11 -8 17 4 7 3 10 -2 7 -5 -3 -20 6 -34 20 -16 16 -18
20 -5 11 18 -13 19 -13 6 4 -7 9 -20 17 -27 17 -8 0 -14 6 -14 14 0 8 -7 17
-16 20 -8 3 -13 10 -10 15 3 5 -3 11 -14 14 -11 3 -20 13 -20 22 0 9 -4 13
-10 10 -5 -3 -10 1 -10 9 0 9 -7 16 -16 16 -8 0 -12 5 -9 10 3 6 -4 10 -16 10
-12 0 -20 3 -17 6 4 3 -14 26 -38 51 -24 24 -41 49 -38 55 4 6 2 8 -4 4 -6 -3
-13 -2 -17 4 -4 6 -10 8 -15 5 -5 -3 -12 0 -16 6 -5 8 -2 10 7 5 8 -4 1 4 -16
19 -16 14 -29 31 -27 38 2 6 1 9 -3 5 -4 -4 -14 0 -22 8 -8 8 -19 12 -24 9 -5
-4 -9 0 -9 8 0 8 -8 21 -17 28 -11 10 -14 10 -9 2 12 -21 -8 -15 -24 6 -7 11
-17 18 -22 15 -4 -3 -8 3 -8 13 0 14 -2 15 -9 5 -6 -11 -12 -10 -26 5 -23 23
-91 53 -100 45 -4 -4 -6 -2 -5 3 5 21 0 36 -10 30 -5 -3 -10 -1 -10 5 0 6 -5
8 -11 4 -6 -3 -14 -2 -18 4 -3 6 -13 12 -21 14 -8 2 -21 9 -28 16 -8 7 -18 10
-23 7 -5 -4 -9 -1 -9 6 0 8 -4 8 -16 -1 -13 -11 -16 -10 -21 8 -3 13 -13 22
-24 22 -10 0 -21 5 -24 10 -4 6 -11 8 -16 5 -5 -4 -9 -1 -9 5 0 6 -4 8 -10 5
-5 -3 -10 1 -10 10 0 11 -5 15 -15 11 -8 -3 -15 0 -15 7 0 8 -4 6 -10 -3 -6
-10 -10 -11 -10 -2 0 6 -7 12 -15 12 -8 0 -15 5 -15 11 0 5 -4 7 -10 4 -6 -3
-10 -2 -10 3 0 6 -10 8 -22 4 -14 -3 -19 -2 -14 6 4 7 1 12 -9 12 -9 0 -15 6
-12 13 2 6 11 11 18 9 8 -2 10 0 6 4 -10 11 -38 14 -32 4 3 -4 -2 -10 -10 -14
-8 -3 -17 -1 -20 5 -4 5 -11 6 -17 3 -7 -4 -8 -2 -4 4 4 7 1 12 -8 12 -9 0
-16 5 -16 11 0 11 15 4 43 -19 9 -8 17 -11 17 -5 0 5 -10 15 -23 22 -23 12
-36 54 -14 45 7 -2 21 3 32 12 15 11 16 14 4 11 -9 -3 -23 0 -30 6 -11 10 -11
9 0 -5 15 -20 -1 -25 -17 -5 -7 8 -6 16 3 24 8 7 16 9 19 4 6 -10 93 -8 103 3
4 3 -4 16 -16 27 -19 18 -22 19 -19 4 2 -10 -2 -20 -8 -22 -7 -2 -10 6 -9 22
2 14 -1 23 -6 19 -5 -3 -7 -10 -3 -15 6 -11 -13 -39 -27 -39 -16 0 -10 22 15
50 l24 29 22 -21 22 -21 -7 24 c-7 21 -6 22 8 11 9 -8 13 -21 10 -29 -4 -11
-3 -14 6 -9 7 5 10 14 7 22 -3 7 1 20 9 28 12 12 9 13 -20 13 -18 -1 -32 -4
-29 -8 2 -4 0 -10 -6 -14 -5 -3 -10 1 -10 10 0 8 7 18 15 21 8 4 12 11 8 17
-4 6 -1 7 6 3 7 -5 27 -9 44 -11 18 -2 24 -1 15 1 -10 3 -18 10 -18 15 0 16
18 10 40 -13 18 -20 20 -20 14 -4 -5 14 -4 17 4 12 7 -4 12 -2 12 4 0 7 -6 10
-12 7 -18 -6 -50 12 -43 24 4 5 11 9 16 9 6 0 7 -4 4 -10 -3 -5 -2 -10 4 -10
5 0 12 6 14 13 4 9 8 8 17 -3 10 -13 11 -13 6 3 -3 9 0 17 6 17 6 0 9 3 6 6
-4 3 -15 1 -25 -4 -12 -7 -25 -7 -37 0 -15 8 -17 8 -11 -2 5 -9 4 -11 -4 -6
-8 5 -3 17 16 40 15 18 35 43 43 56 8 13 23 32 33 42 9 10 17 23 17 29 0 12
39 70 55 81 5 4 6 8 1 8 -21 0 17 28 39 28 21 -1 23 -3 14 -14 -8 -10 -15 -11
-24 -4 -9 8 -12 4 -9 -15 2 -19 -2 -25 -14 -23 -17 3 -20 -13 -7 -44 5 -11 1
-16 -12 -15 -10 1 -22 7 -26 12 -4 6 -7 1 -5 -10 3 -21 16 -35 33 -35 6 0 3 4
-5 10 -8 5 -11 12 -7 16 4 4 17 -2 30 -13 28 -26 52 -40 43 -25 -3 5 0 13 6
16 7 3 2 3 -12 0 -14 -4 -22 -3 -18 1 4 5 3 14 -4 22 -9 11 -7 18 7 31 13 13
19 14 22 5 3 -7 9 -13 15 -13 6 0 5 6 -2 15 -7 9 -19 14 -26 11 -23 -9 -11 32
13 45 16 9 21 18 17 31 -4 14 -1 17 13 12 10 -3 14 -2 8 3 -13 11 -17 33 -7
33 10 0 37 -50 34 -62 -1 -5 3 -8 8 -8 14 0 12 11 -5 34 -8 10 -12 22 -10 26
8 14 -26 20 -46 10 -13 -7 -19 -7 -19 0 0 5 5 10 11 10 5 0 7 5 3 12 -5 8 -2
9 11 4 15 -5 16 -4 5 9 -11 13 -8 14 17 12 15 -2 38 -9 50 -15 15 -8 24 -9 28
-2 4 6 3 10 -2 9 -17 -3 -53 14 -47 22 3 5 15 5 27 -1 22 -10 22 -10 0 6 -32
23 -29 40 3 19 19 -12 29 -14 37 -6 6 6 7 11 1 11 -5 0 -2 5 6 11 13 9 13 10
0 6 -8 -2 -14 -10 -13 -16 2 -6 -1 -11 -5 -11 -20 0 -20 15 -1 41 11 16 16 29
10 29 -6 0 -11 -5 -11 -11 0 -5 -5 -7 -10 -4 -18 11 10 36 31 30 11 -4 19 -2
19 5 0 6 -4 9 -9 6 -5 -3 -12 1 -15 10 -9 24 -8 26 15 14 17 -10 21 -8 26 9 3
12 9 21 14 21 5 0 9 5 9 10 0 20 -18 10 -27 -15 -6 -19 -12 -22 -23 -15 -13 9
-13 11 0 21 13 9 12 10 -3 5 -13 -4 -17 -1 -15 12 4 21 34 45 47 38 5 -4 16
-3 25 0 13 5 12 9 -7 24 -12 10 -24 16 -26 14 -3 -2 4 -11 15 -20 19 -15 19
-16 -1 -9 -53 18 -51 18 -35 6 13 -10 8 -15 -12 -12 -8 1 -12 -15 -9 -31 0 -5
-4 -8 -9 -8 -14 0 -13 5 12 58 12 26 22 53 22 61 1 8 8 17 16 19 12 4 13 3 2
-10 -10 -13 -10 -17 5 -22 16 -7 27 3 23 20 -1 4 4 11 12 16 10 7 9 8 -4 4
-10 -3 -24 -3 -32 0 -12 4 -12 10 1 35 8 16 12 33 8 39 -3 5 -1 10 4 10 6 0
10 3 10 8 -4 25 2 34 14 23 11 -8 22 -4 50 17 20 15 36 31 37 36 0 5 -8 2 -17
-5 -15 -12 -16 -12 -11 2 4 9 1 22 -5 28 -6 6 -7 14 -3 18 4 4 11 1 16 -7 6
-8 10 -10 10 -5 0 15 -16 37 -26 35 -5 -1 -10 3 -12 9 -2 7 3 8 14 4 13 -5 16
-3 12 9 -4 9 -1 21 5 28 9 10 9 11 0 6 -8 -4 -11 0 -8 15 3 17 1 19 -9 9 -15
-12 -16 -27 -2 -49 6 -9 5 -12 -2 -7 -15 9 -27 -13 -14 -26 13 -13 4 -40 -11
-31 -5 3 -7 2 -4 -4 7 -11 -14 -63 -25 -63 -10 0 -10 14 -1 24 7 6 13 29 15
53 1 7 4 10 8 8 4 -2 7 10 7 28 1 53 7 76 16 70 5 -3 6 4 2 16 -4 13 -2 21 5
21 6 0 8 -4 5 -10 -3 -5 1 -10 10 -10 10 0 15 -7 13 -17 -2 -11 2 -17 10 -15
9 2 10 -3 4 -15 -8 -16 -8 -25 -4 -59 1 -7 13 -11 26 -10 13 0 22 4 19 9 -2 4
-12 6 -20 5 -9 -2 -18 2 -20 7 -9 26 35 11 52 -17 12 -21 14 -28 4 -23 -11 7
-12 6 -2 -7 7 -8 10 -18 6 -21 -3 -4 -1 -7 6 -7 15 0 50 -97 67 -190 2 -14 7
-36 9 -50 3 -14 7 -45 10 -70 3 -24 7 -45 8 -46 5 -5 127 -9 127 -4 0 3 14 5
30 5 22 0 29 -4 25 -14 -4 -11 -1 -10 13 2 10 9 22 14 26 10 4 -4 9 3 13 15 3
12 9 22 14 22 5 0 9 5 9 11 0 5 -4 8 -8 5 -4 -2 -9 23 -10 57 -1 34 -4 72 -7
85 -3 16 0 20 8 15 7 -4 6 0 -2 10 -11 14 -11 17 0 17 20 0 42 37 28 46 -6 3
-16 1 -22 -5 -17 -17 -31 -13 -16 5 10 13 10 17 -2 25 -8 5 -9 9 -3 9 5 0 15
-5 21 -11 7 -7 10 -4 9 13 -1 13 2 28 7 35 10 13 1 33 -14 33 -5 0 -9 -5 -9
-11 0 -5 5 -7 10 -4 6 3 10 2 10 -4 0 -14 -14 -21 -28 -12 -7 4 -10 21 -8 39
2 18 -1 32 -6 32 -6 0 -7 7 -4 16 3 8 1 25 -5 36 -6 11 -7 18 -2 15 4 -3 16 6
26 19 14 19 15 23 2 18 -8 -3 -15 -10 -15 -15 0 -5 -3 -9 -7 -9 -5 0 -8 15 -8
34 0 19 3 32 7 30 4 -3 5 14 2 36 -3 22 -1 40 3 40 5 0 7 18 5 40 -4 37 -2 40
18 38 13 -2 25 3 27 12 4 13 3 13 -7 0 -9 -11 -13 -12 -17 -2 -2 6 -8 10 -12
8 -4 -3 -8 1 -8 8 0 8 12 14 26 14 66 2 66 2 51 12 -8 5 -21 5 -31 -1 -23 -12
-29 -11 -29 1 0 6 8 10 18 11 11 0 12 2 4 6 -7 3 -20 -1 -29 -9 -9 -7 -14 -8
-10 -2 4 6 10 42 13 80 4 38 11 71 15 72 5 2 9 8 9 13 0 6 -4 8 -8 5 -15 -9
-7 40 8 60 10 12 11 15 2 10 -10 -6 -12 4 -8 48 6 54 5 57 -21 67 -16 6 -51
15 -79 21 -49 10 -55 8 -112 -22 -35 -18 -66 -29 -73 -24 -8 4 -10 3 -5 -4 4
-7 4 -12 -1 -13 -4 0 -36 -2 -69 -5 -61 -5 -62 -5 -72 25 -7 19 -7 31 -1 31 5
0 9 -6 9 -14 0 -8 4 -17 9 -20 6 -4 6 5 2 21 -5 16 -12 27 -17 26 -5 -1 -10
12 -11 28 -1 17 3 29 10 29 7 0 8 3 2 8 -12 8 -17 25 -21 72 -3 40 -12 88 -19
109 -3 7 0 21 7 29 10 12 10 14 1 8 -12 -7 -19 19 -14 48 1 5 -4 13 -11 17
-10 7 -10 11 0 21 15 15 16 28 1 28 -5 0 -7 -6 -3 -12 4 -8 3 -10 -2 -5 -12
12 -12 30 1 39 6 5 3 8 -7 8 -10 0 -18 7 -18 15 0 13 4 14 21 4 17 -9 20 -8
14 2 -6 8 -4 11 7 7 8 -4 15 0 15 7 0 10 -5 11 -18 4 -24 -12 -32 -11 -23 4 4
6 4 9 -1 5 -4 -4 -14 -3 -22 3 -11 10 -11 15 -1 27 11 13 11 14 -1 7 -11 -6
-13 -3 -9 13 4 13 0 23 -8 26 -8 3 -14 14 -14 24 0 10 -16 55 -35 101 -19 46
-32 87 -30 91 3 5 -2 10 -10 14 -8 3 -12 12 -9 21 3 8 11 12 17 8 6 -3 7 -1 3
6 -6 9 -11 9 -24 -1 -10 -8 -13 -9 -9 -1 4 6 0 18 -8 26 -9 9 -12 23 -8 33 4
11 2 15 -4 11 -13 -8 -37 37 -30 57 4 9 1 15 -5 13 -5 -1 -21 17 -34 41 -14
23 -22 42 -18 42 4 0 -2 8 -13 18 -11 9 -19 25 -17 35 1 9 -1 15 -6 12 -4 -2
-24 20 -44 50 -38 58 -43 71 -24 59 7 -4 8 -3 4 4 -4 6 -14 8 -23 5 -12 -5
-15 -2 -10 10 4 10 2 16 -6 14 -7 -1 -11 4 -9 11 1 6 -2 12 -6 12 -12 0 -108
121 -104 131 1 5 -2 8 -6 7 -11 -4 -138 122 -134 133 1 5 -4 8 -10 7 -7 -2
-11 4 -10 12 2 8 0 12 -4 8 -10 -11 -85 52 -78 64 4 7 2 8 -4 4 -7 -4 -12 -2
-12 4 0 6 -4 8 -10 5 -5 -3 -15 3 -22 15 -7 11 -17 20 -22 20 -5 0 -19 9 -30
19 -12 11 -66 49 -121 85 -55 36 -104 69 -110 74 -5 4 -58 32 -117 62 -59 29
-104 58 -101 63 3 6 1 7 -5 3 -10 -6 -25 -1 -99 31 -217 94 -496 161 -743 179
-84 6 -239 11 -243 8z m-244 -405 c4 -16 2 -19 -11 -14 -9 4 -26 9 -38 10 -18
3 -21 -2 -18 -32 1 -20 8 -41 14 -47 8 -8 9 -4 1 17 -14 38 -14 42 4 27 9 -8
15 -8 15 -2 0 6 -6 12 -12 15 -7 2 -10 8 -6 12 4 4 22 -1 40 -12 34 -20 58
-20 58 -1 0 7 -5 6 -14 -1 -19 -16 -28 0 -10 17 7 7 17 13 20 13 14 1 22 -26
13 -42 -6 -12 -5 -20 3 -25 7 -4 10 -3 5 1 -4 5 0 19 9 33 10 15 11 21 3 17
-8 -6 -11 -4 -7 7 4 10 0 14 -15 14 -12 -1 -28 -5 -34 -9 -8 -5 -13 -3 -13 5
0 10 18 13 78 12 42 -1 80 -2 84 -3 3 0 11 -14 16 -30 9 -24 15 -28 33 -24 14
4 20 2 15 -5 -3 -6 -2 -13 3 -16 5 -4 8 2 7 11 -2 10 -11 18 -22 18 -18 0 -32
17 -33 41 -1 8 9 10 32 5 17 -4 44 -6 60 -4 15 2 27 -1 27 -7 0 -7 8 -9 20 -5
12 4 28 1 37 -7 14 -11 16 -11 9 0 -7 11 -4 12 11 3 11 -6 22 -9 24 -8 2 1 -2
-3 -9 -10 -8 -6 -20 -9 -27 -7 -17 7 -29 -12 -14 -22 8 -5 9 -3 5 5 -5 8 -3
12 5 10 25 -3 37 1 53 17 9 8 16 11 16 5 0 -6 16 -11 35 -11 19 0 35 -4 35 -9
0 -4 10 -7 23 -6 29 3 119 -29 110 -39 -5 -4 1 -7 12 -6 36 4 45 0 46 -17 0
-11 3 -13 6 -5 2 6 9 12 14 12 6 0 7 -5 3 -12 -4 -6 -3 -8 3 -5 6 4 28 0 49
-9 29 -12 34 -18 23 -26 -11 -8 -9 -8 6 -3 23 7 107 -33 98 -48 -3 -6 -1 -7 5
-3 14 8 73 -24 66 -36 -3 -4 1 -5 9 -2 8 3 21 -1 28 -8 8 -7 27 -19 42 -27 15
-8 25 -20 23 -28 -3 -7 0 -15 6 -19 7 -4 8 -3 4 4 -14 22 23 12 38 -10 9 -12
16 -19 16 -14 0 5 11 -3 25 -18 14 -15 25 -23 25 -19 0 4 11 -5 25 -21 14 -16
25 -26 25 -22 0 4 44 -36 98 -89 79 -78 94 -97 82 -106 -13 -9 -13 -10 0 -8
25 2 44 -1 38 -6 -3 -3 12 -25 33 -48 22 -23 39 -47 39 -53 0 -7 7 -14 15 -18
8 -3 15 -12 15 -21 0 -8 4 -15 9 -15 11 0 44 -50 44 -67 0 -7 3 -10 7 -8 13 8
136 -214 194 -350 10 -22 25 -56 33 -75 30 -70 100 -280 109 -330 2 -9 10 -44
18 -80 8 -35 14 -65 13 -66 -1 -1 -74 -4 -162 -5 -206 -4 -322 -18 -536 -64
-55 -12 -217 -73 -289 -109 -125 -62 -222 -129 -318 -220 -81 -77 -202 -224
-202 -245 0 -5 -3 -11 -7 -13 -11 -4 -56 -90 -87 -165 -31 -75 -72 -235 -81
-317 -3 -32 -13 -66 -21 -74 -9 -8 -11 -18 -6 -21 5 -3 12 -51 16 -106 11
-173 20 -225 58 -340 19 -58 93 -215 106 -225 4 -3 20 -24 36 -48 17 -24 46
-61 66 -83 21 -21 35 -41 32 -44 -3 -3 -1 -5 4 -5 5 0 45 -34 89 -76 82 -78
86 -92 25 -95 -14 0 -34 -3 -45 -5 -32 -7 -264 -8 -330 -1 -86 10 -200 31
-235 44 -8 3 -24 8 -35 10 -48 8 -210 72 -319 126 -92 45 -116 61 -105 69 11
8 10 9 -4 4 -10 -3 -28 0 -39 7 -25 14 -24 13 -98 67 -30 22 -58 40 -63 40 -5
0 -6 7 -3 16 3 9 2 12 -4 9 -13 -8 -92 54 -85 66 4 5 0 6 -8 4 -7 -3 -29 12
-49 35 -20 22 -39 40 -42 40 -3 0 -17 12 -31 26 -19 19 -23 29 -15 34 8 5 7 9
-5 13 -9 4 -13 3 -10 -3 3 -6 1 -10 -4 -10 -6 0 -11 6 -11 13 0 7 -11 21 -25
31 -13 10 -22 23 -18 29 3 5 1 7 -4 4 -6 -4 -19 5 -29 19 -11 15 -24 31 -29
38 -44 50 -64 79 -59 87 3 5 2 8 -3 7 -4 -2 -9 1 -10 5 -1 5 -9 14 -19 21 -11
8 -14 18 -9 26 5 8 4 11 -2 7 -15 -10 -44 27 -40 50 2 12 9 29 17 40 14 17 13
17 -7 -1 -13 -10 -20 -23 -17 -27 3 -5 2 -9 -3 -9 -8 0 -53 73 -53 85 0 3 6 3
13 -1 6 -4 9 -4 5 0 -3 4 -9 7 -12 7 -13 -3 -33 24 -29 36 3 7 1 13 -4 13 -13
0 -88 151 -85 169 2 7 -1 11 -5 8 -5 -3 -15 9 -22 26 -20 48 -43 100 -52 119
-6 11 -5 19 3 24 6 4 8 3 5 -2 -3 -6 -1 -16 4 -24 7 -11 8 -8 5 10 -2 14 -9
24 -15 22 -6 -1 -14 6 -17 15 -3 10 -11 29 -17 42 -9 19 -9 25 1 28 8 3 5 11
-10 24 -13 10 -20 18 -16 19 4 0 3 12 -2 26 -10 25 -9 26 15 20 14 -4 25 -3
25 2 0 4 -12 9 -27 10 -33 3 -32 2 -37 41 -2 21 1 34 10 38 8 3 14 10 14 16 0
7 -4 7 -12 -1 -17 -17 -28 -15 -28 4 0 9 5 13 13 9 6 -4 4 0 -6 8 -15 13 -16
15 -2 21 8 3 15 11 14 18 0 10 -2 10 -6 1 -2 -7 -9 -13 -14 -13 -6 0 -7 5 -4
10 3 6 2 10 -2 10 -5 0 -10 10 -10 23 -2 29 -7 49 -16 64 -4 6 -1 14 5 16 10
4 10 8 -1 15 -9 6 -12 22 -9 46 2 20 0 36 -4 36 -19 0 -6 31 18 40 14 6 23 14
19 19 -3 5 2 12 10 14 11 3 10 4 -2 3 -10 -1 -17 -8 -15 -15 2 -9 -3 -11 -13
-8 -8 4 -15 2 -15 -3 0 -6 -5 -10 -10 -10 -7 0 -7 6 0 19 12 24 13 34 1 27 -5
-3 -9 9 -8 27 0 17 -3 44 -6 60 -7 31 15 38 32 10 9 -16 10 -16 11 -2 0 15
-25 34 -40 31 -3 0 -5 42 -5 94 0 52 2 94 6 94 14 0 18 -14 8 -27 -8 -9 -8
-13 -1 -13 6 0 9 -6 6 -14 -3 -8 0 -17 7 -22 14 -8 41 24 32 39 -4 6 0 8 11 4
11 -4 15 -3 11 4 -8 13 -30 6 -31 -9 -1 -7 -2 -16 -3 -22 -2 -21 -18 -9 -18
15 0 14 4 25 10 25 7 0 2 7 -9 15 -18 12 -21 24 -21 80 0 36 4 68 9 71 4 3 8
10 8 15 0 6 -4 7 -10 4 -5 -3 -8 0 -5 7 9 25 17 73 16 95 0 12 4 25 11 29 7 4
8 3 4 -4 -5 -8 -1 -10 11 -5 16 6 16 5 4 -10 -9 -11 -10 -17 -2 -17 6 0 11 5
11 10 0 6 5 9 11 8 6 -2 16 5 22 15 10 14 9 20 -3 27 -8 5 -17 7 -20 5 -4 -2
-7 9 -7 25 0 16 3 27 7 25 3 -2 11 -1 17 3 8 5 7 13 -4 27 -15 20 -15 19 -8
-3 5 -16 3 -22 -7 -20 -7 2 -13 -6 -13 -17 0 -11 -4 -26 -8 -32 -5 -8 -4 -14
2 -14 6 -1 16 -2 23 -3 6 0 13 -6 15 -13 3 -8 -4 -11 -18 -8 -34 7 -39 17 -28
60 6 22 11 48 12 58 1 9 7 17 14 17 7 0 13 5 13 11 0 5 -4 7 -10 4 -5 -3 -10
-1 -10 4 0 6 4 11 9 11 6 0 10 10 10 23 1 59 1 59 17 46 9 -7 11 -16 5 -23
-16 -21 -6 -91 17 -114 26 -26 30 -14 5 14 -21 22 -28 54 -13 54 5 0 10 -4 10
-10 0 -5 5 -10 11 -10 8 0 8 5 -1 15 -10 12 -10 18 0 30 8 9 8 15 2 15 -6 0
-12 -6 -15 -12 -2 -7 -8 -10 -12 -6 -11 10 16 40 30 34 7 -2 18 1 25 7 9 9 11
7 8 -8 -1 -11 -9 -25 -17 -31 -15 -12 -7 -34 12 -34 7 0 6 4 -3 10 -13 9 -13
11 -1 19 26 16 23 70 -2 54 -22 -13 -48 -10 -58 8 -12 24 10 38 26 16 15 -21
26 -22 19 -2 -7 17 11 21 19 5 3 -6 4 -5 3 2 -2 7 -13 12 -24 11 -13 -2 -20 2
-18 10 1 6 1 9 -1 5 -3 -5 -10 -8 -16 -8 -8 0 -8 3 0 11 6 6 9 18 6 25 -3 8 1
14 8 14 7 0 10 3 6 6 -3 4 1 21 10 38 10 17 16 35 15 39 -2 5 3 7 10 5 8 -3
13 -21 12 -50 -1 -42 1 -45 24 -45 21 0 22 1 9 9 -10 5 -17 14 -17 20 0 7 5 6
15 -2 8 -7 15 -8 15 -4 0 5 -9 15 -20 22 -11 7 -20 17 -20 23 0 8 5 7 15 -1
15 -12 21 -4 16 23 -1 5 9 6 21 3 13 -3 17 -3 10 0 -6 3 -9 11 -6 16 4 6 2 8
-3 5 -6 -4 -16 0 -23 8 -11 13 -9 15 9 12 13 -2 27 -10 32 -18 7 -11 9 -11 9
4 0 9 -3 18 -7 18 -30 5 -53 3 -52 -5 0 -5 -5 -13 -13 -18 -10 -8 -9 -9 4 -5
12 4 16 0 15 -14 -2 -24 -9 -24 -32 1 -10 11 -13 20 -7 20 7 0 12 9 12 20 0
11 5 20 11 20 5 0 8 3 6 8 -9 15 30 67 52 68 29 2 39 -23 18 -43 -13 -13 -19
-14 -31 -3 -9 7 -16 10 -16 7 0 -3 -3 -12 -6 -21 -3 -9 -1 -16 6 -16 6 0 8 5
5 10 -3 6 -1 10 4 10 6 0 11 -4 11 -10 0 -5 11 -12 24 -16 17 -4 22 -11 19
-24 -3 -10 -1 -20 4 -23 4 -3 8 13 9 34 1 21 -3 39 -8 39 -5 0 -6 -4 -3 -10 3
-5 -1 -10 -9 -10 -21 0 -20 9 1 32 14 16 15 23 5 39 -8 12 -8 19 -2 19 6 0 13
-6 16 -14 5 -14 27 -16 40 -4 3 4 2 13 -2 20 -17 27 -12 67 12 89 20 18 26 20
39 9 8 -7 17 -11 19 -9 1 2 16 21 31 43 l29 38 -21 18 c-12 10 -19 21 -15 25
4 5 1 5 -5 1 -7 -4 -13 -2 -13 4 0 6 -5 8 -11 5 -6 -5 -2 -13 13 -23 34 -24
38 -33 21 -58 -9 -14 -21 -21 -31 -17 -13 4 -14 3 -3 -5 9 -6 10 -12 3 -16 -6
-4 -16 2 -21 13 -14 26 -14 31 2 27 6 -1 9 -1 5 1 -5 3 -8 9 -8 14 0 6 5 7 10
4 6 -3 10 -1 10 5 0 6 4 9 10 5 5 -3 7 -12 3 -20 -3 -8 -3 -15 0 -15 18 0 11
32 -11 51 -14 13 -20 16 -13 7 14 -18 5 -24 -16 -10 -8 5 -6 13 6 28 19 24 80
26 106 4 10 -9 15 -9 15 -1 0 6 -6 11 -12 11 -10 0 -9 3 1 9 11 7 9 10 -8 16
-12 3 -19 11 -15 16 4 6 11 6 20 -2 17 -14 48 -4 41 14 -19 47 -18 51 8 22 28
-30 25 -15 -3 18 -15 17 -6 23 14 9 12 -8 28 -43 25 -55 -1 -5 3 -6 9 -2 6 4
4 17 -6 37 -15 29 -15 32 1 44 14 11 20 10 32 -2 18 -18 24 -18 17 1 -6 15
-19 20 -39 15 -32 -7 -56 -6 -61 1 -3 5 -2 10 3 10 78 13 75 12 93 5 22 -8 81
49 73 70 -4 12 -3 15 5 10 8 -4 10 -2 6 8 -4 9 0 14 10 12 18 -3 34 -16 19
-16 -6 0 -14 -8 -17 -17 -6 -15 -5 -15 13 1 11 10 18 23 15 27 -3 5 -1 9 3 9
5 0 13 -10 18 -21 12 -25 28 -27 31 -4 2 12 -1 13 -11 5 -10 -8 -14 -4 -19 16
-6 21 -9 24 -21 14 -11 -9 -15 -9 -15 -1 0 22 32 25 47 5 13 -18 15 -18 27 -1
15 19 31 24 20 5 -4 -7 -3 -8 5 -4 6 4 9 12 6 17 -4 5 -1 9 4 9 6 0 11 5 11
10 0 6 -9 5 -22 -3 -13 -7 -30 -12 -38 -11 -8 1 -23 2 -32 3 -10 0 -18 5 -18
11 0 5 19 9 43 7 31 -1 41 2 39 12 -2 9 3 11 13 7 9 -3 14 -2 11 2 -3 5 8 9
24 9 18 0 27 -4 23 -11 -4 -6 3 -3 15 8 19 16 24 17 39 5 11 -9 14 -10 9 -1
-7 11 5 17 27 13 5 -1 6 3 3 8 -4 5 4 17 16 25 12 9 18 16 13 16 -6 0 3 9 20
20 32 21 50 18 20 -4 -21 -15 -12 -36 15 -36 14 0 18 -5 14 -17 -5 -15 -4 -15
4 -3 14 18 6 30 -19 30 -10 0 -19 5 -19 11 0 6 6 9 13 6 8 -3 14 3 14 15 2 27
11 34 24 21 6 -6 19 -9 28 -5 14 5 14 4 2 -11 -10 -13 -17 -15 -27 -6 -10 8
-14 8 -14 0 0 -6 5 -11 11 -11 5 0 8 -4 4 -9 -3 -5 0 -13 6 -17 7 -4 9 -3 6 3
-6 10 26 43 43 43 5 0 14 8 20 18 8 12 13 14 16 4 3 -7 20 -19 37 -28 28 -13
29 -13 12 0 -11 8 -27 22 -36 31 -10 10 -23 13 -35 8 -16 -6 -17 -4 -7 8 10
13 10 16 -2 16 -8 0 -12 -4 -9 -9 3 -4 1 -8 -5 -8 -12 0 -25 20 -14 21 4 1 19
2 33 3 14 2 35 8 48 15 12 6 22 9 22 6 0 -3 9 -1 20 5 11 6 20 7 20 1 0 -13
-29 -22 -43 -14 -8 5 -8 2 0 -9 7 -8 9 -19 5 -23 -4 -5 -2 -5 5 -2 6 4 14 1
17 -5 3 -7 3 -2 -1 12 -5 23 -5 24 12 10 11 -9 16 -10 11 -3 -7 13 3 41 17 42
8 1 47 -36 47 -45 0 -4 -11 1 -25 10 -14 9 -25 13 -25 9 0 -5 10 -14 21 -21
29 -18 53 3 27 22 -10 7 -18 18 -18 25 0 15 33 14 49 -1 10 -11 12 -10 9 2 -2
11 8 15 45 14 26 0 47 4 47 8 0 15 8 8 13 -13z m-323 -94 c0 -7 -54 0 -68 9
-6 4 -25 0 -42 -9 -16 -8 -32 -14 -35 -13 -3 2 -14 -11 -25 -29 -20 -34 -67
-67 -57 -41 2 7 9 12 13 11 5 -1 17 12 26 27 16 28 16 29 -2 18 -11 -7 -17
-14 -15 -17 11 -11 -35 -30 -61 -25 -21 3 -25 2 -14 -5 8 -5 18 -7 22 -5 10 6
11 -10 1 -19 -3 -4 -12 -2 -20 4 -10 9 -13 8 -13 -1 0 -7 -7 -10 -15 -6 -22 8
-69 -15 -53 -26 10 -7 10 -9 -1 -6 -31 9 -18 25 45 58 71 37 99 49 74 31 -11
-8 -11 -11 -2 -11 7 0 15 7 18 15 6 14 41 31 57 27 4 -1 7 2 7 6 0 5 6 9 13
10 6 0 30 7 52 15 35 13 43 13 67 1 16 -8 28 -17 28 -19z m-443 -170 c-9 -7
-13 -15 -9 -19 4 -4 2 -6 -4 -4 -6 2 -21 -8 -34 -22 -17 -20 -20 -21 -16 -6 6
16 4 17 -9 6 -8 -7 -15 -21 -15 -31 0 -11 -3 -18 -7 -18 -22 4 -33 -2 -27 -13
4 -7 4 -10 -1 -6 -4 4 -16 3 -26 -3 -15 -7 -19 -6 -19 6 0 8 3 14 8 14 18 -3
35 2 29 8 -9 8 13 34 24 28 4 -3 13 3 18 14 6 10 22 22 36 25 16 4 23 11 19
18 -4 6 -3 8 3 5 6 -4 14 0 17 9 3 8 11 12 17 8 9 -5 7 -11 -4 -19z m73 -5 c0
-5 -2 -10 -4 -10 -3 0 -8 5 -11 10 -3 6 -1 10 4 10 6 0 11 -4 11 -10z m-135
-91 c-32 -32 -45 -37 -45 -14 0 8 3 14 8 14 20 -3 31 2 26 14 -3 8 4 13 17 14
21 2 20 0 -6 -28z m-147 -73 c-21 -15 -23 -37 -6 -54 14 -14 4 -27 -15 -19 -9
3 -13 16 -12 31 2 14 -1 24 -5 21 -5 -3 -7 -12 -4 -19 6 -15 -23 -42 -34 -32
-4 4 1 12 11 17 9 6 15 14 12 19 -6 10 42 50 59 50 6 0 3 -7 -6 -14z m42 10
c0 -3 -4 -8 -10 -11 -5 -3 -10 -1 -10 4 0 6 5 11 10 11 6 0 10 -2 10 -4z
m-101 -100 c24 -14 24 -14 -12 -13 -36 1 -44 7 -30 20 9 9 14 8 42 -7z m-93
-101 c-11 -17 -13 -25 -4 -25 16 0 -40 -58 -63 -65 -12 -4 -16 -12 -12 -22 5
-12 3 -14 -7 -8 -9 5 -11 4 -6 -3 11 -19 26 -14 26 9 0 11 4 17 10 14 6 -4 8
-15 5 -25 -3 -10 -1 -21 5 -25 5 -3 10 -11 10 -17 0 -6 -12 -3 -26 7 -21 14
-28 14 -42 3 -13 -11 -14 -11 -7 1 6 11 4 13 -8 8 -14 -5 -13 0 5 26 13 17 26
34 29 37 3 3 8 13 12 23 5 13 13 16 26 12 11 -3 22 -2 25 3 3 6 0 9 -7 8 -6 0
-13 4 -13 9 -1 6 3 9 8 7 6 -2 8 4 5 11 -6 17 11 37 31 37 12 0 11 -4 -2 -25z
m2747 -1438 c7 4 24 8 40 9 21 1 26 -2 22 -16 -3 -9 3 -24 15 -35 11 -10 17
-22 13 -28 -4 -6 -1 -7 6 -3 9 6 8 13 -5 27 -10 11 -12 19 -6 19 7 0 12 5 12
11 0 8 -5 8 -15 -1 -18 -15 -20 1 -3 18 17 17 28 15 29 -5 1 -17 2 -17 6 0 2
9 9 17 15 17 5 0 8 -6 5 -14 -3 -8 1 -17 9 -20 9 -3 12 -10 9 -16 -3 -5 -1
-10 4 -10 14 0 14 17 1 25 -5 3 -10 12 -10 19 0 10 15 13 58 11 31 -2 57 -4
57 -5 0 -1 20 -3 44 -3 27 -1 46 -7 49 -15 3 -11 0 -12 -16 -3 -23 12 -35 1
-26 -24 4 -10 2 -15 -6 -13 -7 2 -15 -4 -17 -12 -4 -12 -3 -12 5 -2 5 8 13 14
18 15 5 1 8 10 7 19 -2 12 2 15 12 12 8 -4 15 -14 16 -23 0 -12 2 -12 9 4 5
11 9 17 11 13 3 -12 6 -27 8 -34 0 -3 6 -2 12 1 7 5 4 14 -7 26 -18 21 -14 35
9 26 16 -6 19 -46 20 -222 1 -189 -9 -299 -49 -511 -20 -109 -94 -309 -155
-424 -86 -160 -244 -365 -256 -332 -3 6 -14 12 -26 12 -18 0 -19 2 -7 10 12 8
11 10 -7 10 -13 0 -23 4 -23 10 0 5 -7 7 -15 4 -8 -4 -17 1 -21 10 -3 9 -12
16 -19 16 -8 0 -22 10 -32 23 -10 13 -24 22 -31 19 -7 -2 -22 6 -32 19 -11 12
-20 18 -20 13 0 -5 -5 -1 -11 9 -5 9 -16 17 -22 17 -7 0 -20 8 -29 18 -9 9
-30 29 -47 45 -17 15 -29 27 -25 27 3 0 -9 15 -28 34 -18 19 -39 42 -46 53 -7
10 -10 12 -6 4 5 -9 3 -12 -4 -7 -7 4 -12 14 -12 22 0 9 -5 12 -12 8 -7 -4
-10 -4 -6 1 4 4 3 16 -3 27 -12 23 -21 57 -21 81 1 9 -5 17 -11 17 -8 0 -8 3
1 9 11 7 10 9 -3 14 -11 5 -13 11 -7 24 5 10 7 24 4 32 -3 9 0 11 9 6 8 -5 11
-5 7 -1 -3 4 -45 8 -92 8 -64 1 -86 5 -91 15 -3 8 -3 19 0 23 3 5 1 20 -5 34
-6 16 -6 27 1 31 5 4 7 10 4 15 -3 5 -1 19 5 30 9 17 8 19 -7 13 -15 -5 -16
-4 -7 8 6 8 10 22 9 32 -2 9 0 17 4 17 4 0 7 10 6 23 -3 29 5 42 16 26 11 -18
12 -32 1 -25 -4 2 -8 -3 -8 -12 -1 -9 -3 -24 -5 -32 -2 -9 3 -15 14 -15 21 0
37 -23 30 -41 -4 -10 -10 -11 -23 -4 -13 7 -21 6 -26 -2 -4 -7 -4 -10 1 -6 4
4 15 2 23 -4 11 -10 17 -8 28 7 12 16 12 22 -1 41 -17 26 -19 38 -7 30 4 -2
14 4 21 16 7 11 8 17 2 13 -12 -7 -14 2 -13 49 1 25 -1 26 -12 11 -16 -23 -37
-11 -32 18 3 12 5 26 5 30 1 5 5 6 10 3 5 -3 9 4 9 17 -1 42 41 146 69 175 7
8 11 18 8 23 -4 5 -1 9 5 9 6 0 9 4 6 9 -3 5 1 14 9 21 8 7 15 18 15 26 0 7 7
17 16 22 9 5 14 11 13 13 -6 7 28 49 34 42 4 -3 7 -1 7 6 0 15 50 60 68 61 6
0 12 4 12 10 0 14 112 68 129 62 8 -2 11 0 8 5 -3 5 -1 10 6 11 22 2 42 7 55
16 7 4 16 5 19 2 3 -3 14 -1 25 5 16 9 24 6 40 -11 11 -12 27 -19 35 -16 8 3
26 -1 41 -10 l27 -16 -25 20 c-14 11 -21 24 -17 29 5 4 13 1 18 -7 9 -12 10
-12 5 3 -4 12 -2 17 6 14 7 -2 12 -11 10 -20 -4 -21 17 -32 31 -17 9 10 8 12
-7 6 -13 -5 -17 -2 -13 9 4 8 2 17 -3 20 -6 4 -10 11 -10 16 0 6 4 8 9 4 5 -3
13 0 17 7 6 9 9 9 12 0 2 -7 9 -9 15 -5z m-63 -1 c0 -1 -14 -12 -31 -25 -24
-18 -33 -20 -45 -11 -23 20 -16 29 16 25 17 -2 29 -1 26 3 -3 4 4 9 15 9 10 1
19 1 19 -1z m1200 -430 c0 -11 -19 -15 -25 -6 -3 5 1 10 9 10 9 0 16 -2 16 -4z
m-65 -106 c1 -11 -9 -27 -22 -35 -27 -18 -28 -16 -6 30 17 36 26 38 28 5z
m443 -28 c2 -7 -2 -10 -12 -6 -9 3 -16 11 -16 16 0 13 23 5 28 -10z m12 -67
c-7 -8 -17 -15 -22 -15 -6 0 -5 7 2 15 7 8 17 15 22 15 6 0 5 -7 -2 -15z
m-2210 -5 c0 -5 -5 -10 -11 -10 -5 0 -7 5 -4 10 3 6 8 10 11 10 2 0 4 -4 4
-10z m-11 -61 c-27 -27 -32 -23 -13 12 11 22 18 28 24 19 4 -7 0 -20 -11 -31z
m1701 -23 c0 -3 -4 -8 -10 -11 -5 -3 -10 -1 -10 4 0 6 5 11 10 11 6 0 10 -2
10 -4z m-74 -147 c8 -14 -11 -33 -25 -25 -11 7 -4 36 9 36 5 0 12 -5 16 -11z
m-3 -39 c6 0 0 -11 -12 -24 -15 -16 -19 -26 -11 -31 16 -10 6 -30 -16 -30 -12
0 -19 -7 -19 -18 0 -19 -24 -39 -37 -31 -5 3 -6 10 -2 15 3 5 9 7 13 5 3 -3 7
3 8 12 2 27 8 45 23 72 8 14 13 29 12 34 -2 5 4 6 13 2 9 -3 22 -6 28 -6z
m-119 -221 c-11 -12 -21 -16 -27 -10 -13 13 -2 26 23 28 21 2 22 1 4 -18z
m-40 -111 c-4 -6 -10 -5 -15 3 -14 22 -10 33 6 19 8 -7 12 -17 9 -22z m-196
-223 c-7 -16 -15 -22 -21 -16 -6 6 -4 15 4 25 21 23 30 19 17 -9z m-18 -65 c0
-5 -2 -10 -4 -10 -3 0 -8 5 -11 10 -3 6 -1 10 4 10 6 0 11 -4 11 -10z m-25
-70 c-3 -5 -11 -10 -16 -10 -6 0 -7 5 -4 10 3 6 11 10 16 10 6 0 7 -4 4 -10z
m-115 -45 c0 -2 -12 -11 -27 -20 l-28 -15 30 7 c27 6 29 5 16 -10 -9 -12 -18
-14 -31 -7 -9 5 -19 8 -21 7 -3 -1 5 8 16 20 18 19 45 31 45 18z m-953 -605
c-1 -15 -6 -19 -22 -14 -16 4 -17 3 -5 -5 8 -5 11 -13 7 -18 -5 -4 -12 -1 -17
7 -12 19 -13 43 -1 35 5 -3 12 -1 16 5 11 17 24 11 22 -10z m63 -21 c0 -14
-17 -10 -23 5 -4 10 -1 13 9 9 7 -3 14 -9 14 -14z m-436 -61 c-3 -4 -9 -8 -15
-8 -5 0 -9 4 -9 8 0 5 7 9 15 9 8 0 12 -4 9 -9z m2606 -988 c0 -5 -4 -10 -9
-10 -6 0 -13 5 -16 10 -3 6 1 10 9 10 9 0 16 -4 16 -10z m-10 -60 c0 -5 -4
-10 -10 -10 -5 0 -10 5 -10 10 0 6 5 10 10 10 6 0 10 -4 10 -10z m-50 -201
c-11 -8 -9 -9 9 -4 l24 7 -20 -28 c-11 -16 -18 -34 -16 -41 5 -15 -11 -25 -30
-17 -20 7 -10 34 12 34 9 0 12 3 6 8 -11 8 -11 14 0 50 6 17 11 20 19 12 8 -8
7 -14 -4 -21z m-26 -105 c5 -13 -28 -84 -39 -84 -4 0 -3 50 1 78 5 26 29 30
38 6z m-39 -155 c11 -17 -1 -21 -15 -4 -8 9 -8 15 -2 15 6 0 14 -5 17 -11z
m-100 -70 c-17 -32 -13 -49 11 -49 17 0 18 -5 2 -30 -12 -18 -13 -18 -31 -2
-18 16 -20 16 -34 -5 -20 -30 -28 -29 -31 3 -1 19 6 29 28 42 16 9 30 21 30
25 0 5 -5 5 -12 1 -7 -4 -8 -3 -4 4 4 7 14 12 22 12 8 0 12 5 9 10 -8 13 4 32
16 25 5 -4 2 -19 -6 -36z m-156 -190 c-19 -14 -22 -20 -11 -30 15 -16 16 -29
1 -29 -5 0 -7 5 -4 10 6 9 -8 14 -27 11 -16 -2 -7 14 20 39 15 15 31 24 36 22
5 -3 -2 -13 -15 -23z m-69 -59 c0 -5 -4 -10 -10 -10 -5 0 -10 5 -10 10 0 6 5
10 10 10 6 0 10 -4 10 -10z m-120 -80 c0 -5 -2 -10 -4 -10 -3 0 -8 5 -11 10
-3 6 -1 10 4 10 6 0 11 -4 11 -10z m-77 -31 c-12 -12 -33 -4 -33 11 0 5 7 6
17 3 12 -5 14 -3 8 8 -6 11 -5 12 6 2 9 -10 10 -16 2 -24z m-2182 -159 c6 0 8
4 5 8 -3 5 1 9 8 9 8 0 14 -11 14 -23 0 -22 -2 -23 -30 -8 -17 9 -26 19 -21
26 5 9 8 9 11 0 2 -7 8 -12 13 -12z m1469 -14 c0 -3 -4 -8 -10 -11 -5 -3 -10
-1 -10 4 0 6 5 11 10 11 6 0 10 -2 10 -4z m-102 -27 c7 -12 11 -24 8 -27 -6
-6 -35 27 -36 41 0 14 15 7 28 -14z"/>
<path d="M3473 7049 c-23 -8 -32 -29 -12 -29 5 0 8 4 5 9 -3 5 3 11 14 14 22
6 28 -8 8 -16 -10 -4 -10 -6 -1 -6 16 -1 27 19 17 29 -5 4 -19 4 -31 -1z"/>
<path d="M3245 7038 c8 -21 -14 -25 -33 -6 -6 6 -14 9 -17 7 -3 -3 6 -12 20
-19 20 -10 28 -11 37 -2 9 9 9 15 -1 25 -10 10 -11 9 -6 -5z"/>
<path d="M3570 7036 c27 -14 40 -12 40 7 0 8 -3 8 -9 -2 -6 -9 -11 -10 -15 -2
-4 6 -15 11 -24 11 -12 0 -10 -4 8 -14z"/>
<path d="M3630 7035 c0 -8 4 -15 10 -15 5 0 7 7 4 15 -4 8 -8 15 -10 15 -2 0
-4 -7 -4 -15z"/>
<path d="M3670 7030 c-13 -8 -12 -10 3 -10 9 0 17 5 17 10 0 12 -1 12 -20 0z"/>
<path d="M3424 7009 c-4 -7 -3 -9 4 -5 5 3 13 0 15 -6 4 -9 6 -10 6 -1 1 17
-16 25 -25 12z"/>
<path d="M3510 7015 c0 -5 5 -17 10 -25 5 -8 10 -10 10 -5 0 6 -5 17 -10 25
-5 8 -10 11 -10 5z"/>
<path d="M3614 7012 c3 -5 0 -12 -6 -15 -7 -2 -10 -7 -7 -11 3 -4 12 0 18 8 9
11 9 16 0 22 -7 4 -9 3 -5 -4z"/>
<path d="M3056 7002 c-3 -6 -1 -14 5 -17 15 -10 25 3 12 16 -7 7 -13 7 -17 1z"/>
<path d="M3466 6993 c-6 -14 -5 -15 5 -6 7 7 10 15 7 18 -3 3 -9 -2 -12 -12z"/>
<path d="M3662 6994 c10 -10 20 -15 24 -12 3 4 -5 12 -18 18 -22 12 -22 12 -6
-6z"/>
<path d="M3767 6996 c-4 -10 -3 -15 3 -11 6 3 10 1 10 -6 0 -7 3 -10 6 -6 3 3
2 13 -4 22 -8 16 -9 16 -15 1z"/>
<path d="M3233 6980 c19 -25 20 -26 13 -6 -5 14 -2 17 9 12 9 -3 13 -2 10 3
-3 6 -14 9 -25 8 -15 -1 -17 -4 -7 -17z"/>
<path d="M3351 6983 c7 -12 15 -20 18 -17 3 2 -3 12 -13 22 -17 16 -18 16 -5
-5z"/>
<path d="M3735 6991 c-3 -5 -2 -12 3 -15 5 -3 9 1 9 9 0 17 -3 19 -12 6z"/>
<path d="M3896 6987 c3 -10 9 -15 12 -12 3 3 0 11 -7 18 -10 9 -11 8 -5 -6z"/>
<path d="M3144 6982 c-6 -4 -11 -15 -11 -24 0 -18 11 -15 13 3 3 22 5 23 14 9
6 -9 10 -10 10 -3 0 16 -13 23 -26 15z"/>
<path d="M3828 6983 c7 -3 16 -2 19 1 4 3 -2 6 -13 5 -11 0 -14 -3 -6 -6z"/>
<path d="M3216 6967 c3 -10 9 -15 12 -12 3 3 0 11 -7 18 -10 9 -11 8 -5 -6z"/>
<path d="M3316 6972 c-3 -4 4 -9 15 -9 23 -2 25 3 4 10 -8 4 -16 3 -19 -1z"/>
<path d="M3387 6969 c7 -7 15 -10 18 -7 3 3 -2 9 -12 12 -14 6 -15 5 -6 -5z"/>
<path d="M3447 6969 c7 -7 15 -10 18 -7 3 3 -2 9 -12 12 -14 6 -15 5 -6 -5z"/>
<path d="M3700 6976 c0 -2 8 -10 18 -17 15 -13 16 -12 3 4 -13 16 -21 21 -21
13z"/>
<path d="M3875 6970 c-3 -5 -1 -10 4 -10 6 0 11 5 11 10 0 6 -2 10 -4 10 -3 0
-8 -4 -11 -10z"/>
<path d="M3935 6969 c-4 -6 -4 -13 -1 -16 3 -4 6 -1 6 7 0 10 4 10 18 -1 15
-13 16 -12 3 4 -16 20 -18 20 -26 6z"/>
<path d="M3078 6963 c7 -3 16 -2 19 1 4 3 -2 6 -13 5 -11 0 -14 -3 -6 -6z"/>
<path d="M3838 6963 c7 -3 16 -2 19 1 4 3 -2 6 -13 5 -11 0 -14 -3 -6 -6z"/>
<path d="M3188 6953 c7 -3 16 -2 19 1 4 3 -2 6 -13 5 -11 0 -14 -3 -6 -6z"/>
<path d="M3811 6943 c7 -12 15 -20 18 -17 3 2 -3 12 -13 22 -17 16 -18 16 -5
-5z"/>
<path d="M3895 6951 c-3 -5 -2 -12 3 -15 5 -3 9 1 9 9 0 17 -3 19 -12 6z"/>
<path d="M3150 6935 c-11 -13 -10 -14 4 -9 9 3 16 10 16 15 0 13 -6 11 -20 -6z"/>
<path d="M3030 6930 c0 -5 5 -10 10 -10 6 0 10 5 10 10 0 6 -4 10 -10 10 -5 0
-10 -4 -10 -10z"/>
<path d="M3186 6932 c-2 -4 4 -8 14 -8 10 0 16 4 14 8 -3 4 -9 8 -14 8 -5 0
-11 -4 -14 -8z"/>
<path d="M3304 6932 c4 -3 14 -7 22 -8 9 -1 13 0 10 4 -4 3 -14 7 -22 8 -9 1
-13 0 -10 -4z"/>
<path d="M3370 6936 c0 -2 7 -7 16 -10 8 -3 12 -2 9 4 -6 10 -25 14 -25 6z"/>
<path d="M3733 6925 c0 -8 4 -12 9 -9 5 3 6 10 3 15 -9 13 -12 11 -12 -6z"/>
<path d="M3950 6926 c7 -7 13 -7 20 0 6 6 3 10 -10 10 -13 0 -16 -4 -10 -10z"/>
<path d="M3000 6910 c0 -6 4 -9 9 -6 5 4 12 1 14 -4 3 -6 4 -5 3 2 -3 15 -26
23 -26 8z"/>
<path d="M4093 6905 c0 -8 4 -12 9 -9 4 3 8 9 8 15 0 5 -4 9 -8 9 -5 0 -9 -7
-9 -15z"/>
<path d="M3980 6890 c8 -5 20 -10 25 -10 6 0 3 5 -5 10 -8 5 -19 10 -25 10 -5
0 -3 -5 5 -10z"/>
<path d="M2863 6883 c-7 -2 -13 -12 -13 -21 1 -15 2 -15 11 1 6 9 14 15 20 12
5 -4 9 -1 9 4 0 12 -7 13 -27 4z"/>
<path d="M4113 6875 c0 -8 4 -12 9 -9 5 3 6 10 3 15 -9 13 -12 11 -12 -6z"/>
<path d="M4166 6873 c-6 -14 -5 -15 5 -6 7 7 10 15 7 18 -3 3 -9 -2 -12 -12z"/>
<path d="M2960 6870 c-6 -4 7 -7 29 -6 21 0 37 3 35 6 -8 7 -52 7 -64 0z"/>
<path d="M4076 6868 c3 -5 10 -6 15 -3 13 9 11 12 -6 12 -8 0 -12 -4 -9 -9z"/>
<path d="M4190 6850 c0 -5 9 -8 20 -7 21 1 18 10 -5 13 -8 1 -15 -2 -15 -6z"/>
<path d="M4153 6835 c0 -8 4 -12 9 -9 5 3 6 10 3 15 -9 13 -12 11 -12 -6z"/>
<path d="M2765 6830 c-3 -5 -2 -10 4 -10 5 0 13 5 16 10 3 6 2 10 -4 10 -5 0
-13 -4 -16 -10z"/>
<path d="M2847 6829 c7 -7 15 -10 18 -7 3 3 -2 9 -12 12 -14 6 -15 5 -6 -5z"/>
<path d="M2956 6823 c-6 -14 -5 -15 5 -6 7 7 10 15 7 18 -3 3 -9 -2 -12 -12z"/>
<path d="M3016 6823 c-6 -14 -5 -15 5 -6 7 7 10 15 7 18 -3 3 -9 -2 -12 -12z"/>
<path d="M2714 6810 c2 -14 -4 -30 -12 -36 -12 -9 -12 -13 -2 -19 8 -5 11 -4
7 2 -4 6 0 14 9 17 9 4 14 9 11 13 -4 3 1 12 11 20 15 13 15 14 0 9 -9 -3 -19
0 -22 7 -2 7 -3 1 -2 -13z"/>
<path d="M2795 6819 c-4 -6 -5 -12 -2 -15 2 -3 7 2 10 11 7 17 1 20 -8 4z"/>
<path d="M4215 6821 c-3 -5 -2 -12 3 -15 5 -3 9 1 9 9 0 17 -3 19 -12 6z"/>
<path d="M2813 6796 c0 -7 9 -12 19 -12 10 0 18 3 18 7 0 4 -8 9 -18 11 -10 3
-19 0 -19 -6z"/>
<path d="M2754 6792 c3 -6 0 -12 -6 -15 -7 -2 -1 -4 14 -3 34 1 34 2 7 17 -13
6 -19 7 -15 1z"/>
<path d="M2870 6791 c0 -6 4 -13 10 -16 6 -3 7 1 4 9 -7 18 -14 21 -14 7z"/>
<path d="M4315 6781 c-3 -5 -2 -12 3 -15 5 -3 9 1 9 9 0 17 -3 19 -12 6z"/>
<path d="M2661 6743 c0 -11 3 -13 6 -5 2 6 10 9 15 6 7 -4 8 -2 4 4 -11 18
-26 14 -25 -5z"/>
<path d="M2753 6743 c0 -9 4 -10 14 -2 7 6 13 12 13 14 0 1 -6 2 -13 2 -8 0
-14 -6 -14 -14z"/>
<path d="M2696 6717 c3 -10 9 -15 12 -12 3 3 0 11 -7 18 -10 9 -11 8 -5 -6z"/>
<path d="M2581 6706 c-10 -12 -8 -17 11 -26 21 -10 21 -10 5 3 -19 16 -7 34
15 21 7 -4 8 -3 4 4 -10 16 -21 15 -35 -2z"/>
<path d="M2660 6710 c-9 -6 -10 -10 -3 -10 6 0 15 5 18 10 8 12 4 12 -15 0z"/>
<path d="M2760 6716 c0 -2 8 -10 18 -17 15 -13 16 -12 3 4 -13 16 -21 21 -21
13z"/>
<path d="M2543 6683 c-14 -5 -17 -29 -5 -37 4 -2 14 0 22 6 12 8 11 9 -3 4
-12 -4 -17 -2 -14 6 2 7 10 12 16 10 7 -1 10 2 6 8 -3 5 -7 10 -8 9 -1 0 -8
-3 -14 -6z"/>
<path d="M2511 6650 c3 -30 -1 -41 -13 -34 -7 4 -8 3 -4 -4 10 -16 14 -15 25
6 6 12 6 23 0 33 -8 12 -10 12 -8 -1z"/>
<path d="M2588 6653 c7 -3 16 -2 19 1 4 3 -2 6 -13 5 -11 0 -14 -3 -6 -6z"/>
<path d="M2430 6610 c0 -5 4 -10 10 -10 5 0 7 -6 4 -14 -3 -8 -1 -17 5 -21 7
-4 8 0 4 11 -4 12 -3 15 5 10 7 -4 12 -3 12 1 0 5 -9 14 -20 21 -12 7 -20 8
-20 2z"/>
<path d="M4553 6595 c0 -8 4 -12 9 -9 5 3 6 10 3 15 -9 13 -12 11 -12 -6z"/>
<path d="M2500 6576 c0 -2 8 -10 18 -17 15 -13 16 -12 3 4 -13 16 -21 21 -21
13z"/>
<path d="M2470 6556 c0 -2 7 -7 16 -10 8 -3 12 -2 9 4 -6 10 -25 14 -25 6z"/>
<path d="M2390 6530 c0 -5 5 -10 10 -10 6 0 10 5 10 10 0 6 -4 10 -10 10 -5 0
-10 -4 -10 -10z"/>
<path d="M2360 6505 c0 -8 2 -15 4 -15 2 0 6 7 10 15 3 8 1 15 -4 15 -6 0 -10
-7 -10 -15z"/>
<path d="M2306 6468 c10 -13 20 -25 21 -27 1 -2 1 6 0 17 0 11 -5 18 -9 16 -4
-3 -8 0 -8 5 0 6 -5 11 -12 11 -6 0 -3 -10 8 -22z"/>
<path d="M2370 6476 c0 -2 7 -7 16 -10 8 -3 12 -2 9 4 -6 10 -25 14 -25 6z"/>
<path d="M2357 6446 c-10 -8 -14 -16 -10 -19 5 -3 14 3 21 14 14 22 13 23 -11
5z"/>
<path d="M2316 6408 c3 -5 10 -6 15 -3 13 9 11 12 -6 12 -8 0 -12 -4 -9 -9z"/>
<path d="M2295 6389 c-6 -8 -4 -10 5 -4 10 6 12 4 6 -11 -6 -15 -5 -17 5 -6 9
9 10 15 2 23 -8 8 -13 7 -18 -2z"/>
<path d="M2200 6345 c-7 -9 -10 -18 -7 -22 4 -3 9 2 13 11 3 9 10 13 16 10 5
-3 5 -11 -2 -19 -10 -12 -7 -12 14 -2 17 8 21 13 11 15 -8 2 -15 8 -15 13 0
14 -16 11 -30 -6z"/>
<path d="M2190 6290 c0 -5 8 -6 18 -3 15 6 16 5 2 -13 -14 -18 -14 -18 2 -5
10 7 15 17 12 22 -7 12 -34 11 -34 -1z"/>
<path d="M2266 6268 c3 -5 10 -6 15 -3 13 9 11 12 -6 12 -8 0 -12 -4 -9 -9z"/>
<path d="M2211 6234 c0 -11 3 -14 6 -6 3 7 2 16 -1 19 -3 4 -6 -2 -5 -13z"/>
<path d="M2083 6229 c11 -7 23 -7 28 -2 5 5 -3 9 -19 11 -24 1 -25 0 -9 -9z"/>
<path d="M2150 6220 c0 -5 5 -10 10 -10 6 0 10 5 10 10 0 6 -4 10 -10 10 -5 0
-10 -4 -10 -10z"/>
<path d="M2193 6183 c0 -9 4 -10 14 -2 7 6 13 12 13 14 0 1 -6 2 -13 2 -8 0
-14 -6 -14 -14z"/>
<path d="M2156 6152 c-3 -5 1 -9 9 -9 8 0 12 4 9 9 -3 4 -7 8 -9 8 -2 0 -6 -4
-9 -8z"/>
<path d="M2110 6104 c0 -9 -5 -12 -12 -8 -7 4 -8 3 -4 -4 10 -16 14 -15 26 8
7 14 7 20 0 20 -5 0 -10 -7 -10 -16z"/>
<path d="M2000 6080 c0 -21 -1 -26 -16 -47 -8 -13 -10 -23 -4 -23 5 0 12 0 15
0 10 0 42 -35 38 -42 -2 -4 3 -5 13 -1 14 5 14 7 -5 18 -12 6 -18 14 -15 18 7
6 -10 11 -28 8 -11 -1 -10 17 1 23 8 5 13 56 5 56 -2 0 -4 -4 -4 -10z"/>
<path d="M2070 6081 c0 -9 30 -24 36 -18 2 1 -6 8 -16 15 -11 7 -20 8 -20 3z"/>
<path d="M2126 6068 c3 -5 10 -6 15 -3 13 9 11 12 -6 12 -8 0 -12 -4 -9 -9z"/>
<path d="M2075 6010 c-3 -5 -1 -10 4 -10 6 0 11 5 11 10 0 6 -2 10 -4 10 -3 0
-8 -4 -11 -10z"/>
<path d="M2135 6010 c-3 -5 -1 -10 4 -10 6 0 11 5 11 10 0 6 -2 10 -4 10 -3 0
-8 -4 -11 -10z"/>
<path d="M2036 5937 c3 -10 9 -15 12 -12 3 3 0 11 -7 18 -10 9 -11 8 -5 -6z"/>
<path d="M2033 5836 c-2 -19 -1 -19 8 -3 6 9 16 14 22 11 7 -4 8 -3 4 1 -15
17 -33 12 -34 -9z"/>
<path d="M1988 5823 c6 -2 10 -8 8 -12 -3 -4 1 -8 9 -8 11 0 12 4 4 14 -6 7
-17 13 -23 12 -7 0 -6 -2 2 -6z"/>
<path d="M1948 5769 c-23 -13 -23 -21 0 -36 15 -9 19 -8 19 3 0 7 -4 11 -8 8
-4 -2 -10 0 -14 6 -3 5 1 10 9 10 9 0 16 5 16 10 0 12 0 12 -22 -1z"/>
<path d="M2026 5768 c3 -5 10 -6 15 -3 13 9 11 12 -6 12 -8 0 -12 -4 -9 -9z"/>
<path d="M1981 5744 c0 -11 3 -14 6 -6 3 7 2 16 -1 19 -3 4 -6 -2 -5 -13z"/>
<path d="M1975 5709 c-4 -6 -4 -13 -1 -16 3 -4 6 -1 6 6 0 7 5 9 12 5 7 -4 8
-3 4 4 -9 15 -13 15 -21 1z"/>
<path d="M1941 5666 c-10 -12 -8 -17 11 -27 29 -16 50 -20 42 -8 -3 5 -8 7
-12 5 -4 -2 -15 2 -25 9 -12 9 -14 15 -7 20 6 4 19 1 28 -7 15 -12 16 -11 3 5
-16 21 -25 21 -40 3z"/>
<path d="M1888 5632 c3 -9 1 -13 -4 -9 -6 3 -11 -4 -11 -15 -2 -20 -1 -20 13
-2 14 19 14 19 29 0 8 -11 15 -15 15 -9 0 7 -4 15 -10 18 -5 3 -10 12 -10 18
0 7 11 0 24 -15 13 -15 27 -24 30 -21 3 3 -6 15 -21 26 -32 25 -64 30 -55 9z"/>
<path d="M1883 5585 c-8 -9 -9 -16 -3 -20 6 -4 3 -16 -6 -30 -15 -23 -15 -27
4 -56 17 -27 20 -28 26 -13 4 10 4 15 0 11 -4 -4 -13 2 -21 13 -12 17 -12 23
0 40 8 11 18 17 23 12 4 -4 2 1 -5 11 -11 14 -11 20 -1 32 16 19 -1 19 -17 0z"/>
<path d="M1910 5571 c0 -10 19 -25 25 -20 1 2 -3 10 -11 17 -8 7 -14 8 -14 3z"/>
<path d="M1962 5550 c-9 -15 -9 -21 1 -26 6 -4 9 -4 5 1 -4 4 -3 14 4 22 6 7
9 15 7 18 -3 2 -10 -4 -17 -15z"/>
<path d="M1995 5551 c-3 -5 -2 -12 3 -15 5 -3 9 1 9 9 0 17 -3 19 -12 6z"/>
<path d="M1895 5520 c-3 -5 3 -18 15 -30 24 -24 27 -14 3 12 -15 16 -5 27 11
11 10 -11 37 -12 30 -2 -3 5 -9 7 -14 4 -5 -3 -11 -1 -15 5 -8 13 -22 13 -30
0z"/>
<path d="M1860 5464 c0 -6 3 -14 7 -18 4 -4 8 -15 8 -24 0 -18 24 -24 27 -7 1
6 11 17 22 26 16 13 16 16 3 16 -9 0 -14 -4 -12 -8 12 -19 -26 -16 -40 4 -8
12 -15 17 -15 11z m35 -44 c3 -5 1 -10 -4 -10 -6 0 -11 5 -11 10 0 6 2 10 4
10 3 0 8 -4 11 -10z"/>
<path d="M1953 5433 c4 -3 1 -13 -6 -22 -11 -14 -10 -14 5 -2 16 12 16 31 1
31 -4 0 -3 -3 0 -7z"/>
<path d="M1924 5344 c-18 -14 -18 -15 4 -4 12 6 22 13 22 15 0 8 -5 6 -26 -11z"/>
<path d="M1925 5323 c-11 -2 -30 -12 -43 -22 -19 -14 -21 -19 -10 -29 10 -7
18 -8 28 0 12 8 12 9 -2 4 -10 -3 -20 -1 -23 4 -6 9 8 14 28 11 5 -1 6 3 2 9
-3 5 3 10 14 10 11 0 23 5 26 10 3 6 5 9 3 9 -2 -1 -12 -4 -23 -6z"/>
<path d="M1860 5255 c0 -5 5 -17 10 -25 5 -8 10 -10 10 -5 0 6 -5 17 -10 25
-5 8 -10 11 -10 5z"/>
<path d="M1897 5253 c-16 -34 14 -62 44 -42 10 7 5 8 -14 5 -22 -4 -27 -1 -25
12 2 9 10 20 18 24 13 5 12 7 -2 7 -9 1 -19 -2 -21 -6z"/>
<path d="M1940 5255 c0 -2 6 -8 13 -14 10 -8 14 -7 14 2 0 8 -6 14 -14 14 -7
0 -13 -1 -13 -2z"/>
<path d="M1936 5183 c-6 -14 -5 -15 5 -6 7 7 10 15 7 18 -3 3 -9 -2 -12 -12z"/>
<path d="M1906 5173 c-6 -14 -5 -15 5 -6 7 7 10 15 7 18 -3 3 -9 -2 -12 -12z"/>
<path d="M1859 5167 c6 -8 8 -17 4 -21 -4 -4 0 -4 10 -1 14 6 14 9 2 21 -17
18 -31 18 -16 1z"/>
<path d="M1959 5168 c-5 -18 -6 -38 -1 -34 7 8 12 36 6 36 -2 0 -4 -1 -5 -2z"/>
<path d="M1993 5145 c0 -8 4 -12 9 -9 5 3 6 10 3 15 -9 13 -12 11 -12 -6z"/>
<path d="M1917 5139 c7 -7 15 -10 18 -7 3 3 -2 9 -12 12 -14 6 -15 5 -6 -5z"/>
<path d="M1875 5130 c-3 -6 -3 -20 1 -32 l6 -21 13 24 c13 24 11 39 -5 39 -5
0 -12 -5 -15 -10z m19 -15 c-4 -8 -8 -15 -10 -15 -2 0 -4 7 -4 15 0 8 4 15 10
15 5 0 7 -7 4 -15z"/>
<path d="M1914 5108 c-4 -7 -4 -10 1 -6 4 4 15 2 24 -5 14 -11 14 -10 2 6 -16
20 -18 21 -27 5z"/>
<path d="M1936 5063 c-6 -14 -5 -15 5 -6 7 7 10 15 7 18 -3 3 -9 -2 -12 -12z"/>
<path d="M1950 5030 c0 -5 5 -10 11 -10 5 0 7 5 4 10 -3 6 -8 10 -11 10 -2 0
-4 -4 -4 -10z"/>
<path d="M1883 5012 c10 -4 19 -12 20 -17 1 -6 7 -10 12 -10 6 0 15 -4 21 -7
6 -4 11 -1 11 7 0 8 -4 12 -8 9 -4 -2 -10 2 -12 8 -4 10 -6 10 -6 1 -1 -7 -5
-13 -11 -13 -5 0 -9 5 -7 12 1 6 -7 13 -18 15 -18 3 -18 2 -2 -5z"/>
<path d="M1883 4953 c0 -15 2 -22 4 -15 3 6 10 9 16 5 7 -4 5 2 -3 13 -8 10
-15 20 -16 22 -1 2 -1 -10 -1 -25z"/>
<path d="M1949 4933 c-13 -16 -12 -17 4 -4 9 7 17 15 17 17 0 8 -8 3 -21 -13z"/>
<path d="M1910 4923 c7 -3 5 -12 -6 -24 -10 -11 -12 -19 -6 -19 7 0 12 4 12
10 0 5 8 7 18 4 13 -4 14 -3 4 4 -8 5 -13 13 -12 18 1 5 -3 9 -9 11 -8 1 -8 0
-1 -4z"/>
<path d="M1956 4912 c-3 -5 1 -9 9 -9 8 0 12 4 9 9 -3 4 -7 8 -9 8 -2 0 -6 -4
-9 -8z"/>
<path d="M1910 4870 c-9 -6 -10 -10 -3 -10 6 0 15 5 18 10 8 12 4 12 -15 0z"/>
<path d="M1946 4870 c5 -8 9 -21 8 -27 -1 -7 -2 -18 -3 -24 0 -5 -6 -7 -13 -3
-7 5 -8 3 -3 -6 6 -10 11 -10 20 3 7 9 16 13 21 9 4 -4 3 0 -4 9 -6 9 -10 18
-7 21 3 3 -3 11 -12 19 -16 12 -17 12 -7 -1z"/>
<path d="M1917 4839 c7 -7 15 -10 18 -7 3 3 -2 9 -12 12 -14 6 -15 5 -6 -5z"/>
<path d="M1945 4777 c-15 -12 -16 -15 -4 -22 8 -5 11 -5 7 0 -4 4 0 14 10 21
23 18 11 18 -13 1z"/>
<path d="M1993 4775 c0 -8 4 -12 9 -9 5 3 6 10 3 15 -9 13 -12 11 -12 -6z"/>
<path d="M1986 4732 c-3 -5 1 -9 9 -9 8 0 15 4 15 9 0 4 -4 8 -9 8 -6 0 -12
-4 -15 -8z"/>
<path d="M1950 4700 c8 -5 20 -10 25 -10 6 0 3 5 -5 10 -8 5 -19 10 -25 10 -5
0 -3 -5 5 -10z"/>
<path d="M1935 4681 c-9 -15 15 -25 28 -12 9 9 7 10 -7 5 -13 -5 -17 -4 -12 4
4 7 5 12 2 12 -3 0 -7 -4 -11 -9z"/>
<path d="M1997 4599 c7 -7 15 -10 18 -7 3 3 -2 9 -12 12 -14 6 -15 5 -6 -5z"/>
<path d="M1975 4580 c-9 -15 21 -23 42 -11 15 9 13 10 -11 5 -21 -5 -27 -4
-22 5 4 6 5 11 2 11 -3 0 -8 -5 -11 -10z"/>
<path d="M1990 4521 c0 -12 0 -12 47 -16 18 -1 30 1 28 5 -2 4 -14 6 -27 5
-13 -1 -29 2 -35 8 -9 6 -13 6 -13 -2z"/>
<path d="M2056 4392 c-3 -4 4 -9 15 -9 23 -2 25 3 4 10 -8 4 -16 3 -19 -1z"/>
<path d="M2060 4366 c0 -2 7 -7 16 -10 8 -3 12 -2 9 4 -6 10 -25 14 -25 6z"/>
<path d="M2153 4165 c0 -8 4 -12 9 -9 5 3 6 10 3 15 -9 13 -12 11 -12 -6z"/>
<path d="M2230 4011 c0 -6 4 -12 8 -15 5 -3 9 1 9 9 0 8 -4 15 -9 15 -4 0 -8
-4 -8 -9z"/>
<path d="M2270 3946 c0 -2 8 -10 18 -17 15 -13 16 -12 3 4 -13 16 -21 21 -21
13z"/>
<path d="M2315 3930 c3 -5 8 -10 11 -10 2 0 4 5 4 10 0 6 -5 10 -11 10 -5 0
-7 -4 -4 -10z"/>
<path d="M2326 3888 c3 -5 10 -6 15 -3 13 9 11 12 -6 12 -8 0 -12 -4 -9 -9z"/>
<path d="M2374 3835 c0 -13 3 -22 7 -19 8 4 6 30 -2 38 -3 3 -5 -5 -5 -19z"/>
<path d="M2710 6869 c0 -5 5 -7 10 -4 6 3 10 8 10 11 0 2 -4 4 -10 4 -5 0 -10
-5 -10 -11z"/>
<path d="M4977 4973 c3 -7 9 -11 13 -8 5 3 11 -3 13 -12 3 -11 4 -7 4 7 -1 17
-7 26 -18 26 -9 0 -15 -6 -12 -13z"/>
<path d="M5132 4972 c20 -24 63 -41 79 -31 12 7 12 9 -1 10 -8 1 -22 0 -29 -1
-13 -1 -13 1 -2 14 11 12 17 14 27 5 9 -7 14 -8 14 -1 0 17 -29 22 -44 7 -18
-18 -30 -19 -23 -2 3 7 -3 13 -14 13 -14 0 -15 -3 -7 -14z"/>
<path d="M4940 4965 c14 -17 30 -20 30 -4 0 5 -4 7 -10 4 -5 -3 -10 -1 -10 4
0 6 -5 11 -11 11 -8 0 -8 -5 1 -15z"/>
<path d="M5239 4978 c-1 -2 -3 -16 -5 -33 -2 -20 0 -25 5 -16 5 8 7 21 3 29
-3 10 -1 13 6 8 7 -4 12 -2 12 3 0 9 -18 16 -21 9z"/>
<path d="M4777 4954 c-3 -3 -3 -13 1 -22 5 -15 4 -15 -20 0 -22 15 -27 15 -32
3 -3 -8 -12 -12 -20 -9 -24 9 -28 -15 -7 -42 11 -15 18 -31 14 -38 -4 -7 -1
-7 7 1 10 10 11 15 1 27 -9 11 -10 20 -1 35 13 25 27 27 27 6 0 -8 -4 -15 -9
-15 -4 0 -8 -5 -8 -10 0 -6 10 -4 23 5 13 8 26 12 30 9 3 -3 15 -3 27 1 22 7
22 7 -4 24 -14 10 -23 21 -19 24 3 4 4 7 1 7 -2 0 -7 -3 -11 -6z m28 -34 c3
-5 -1 -10 -10 -10 -9 0 -13 5 -10 10 3 6 8 10 10 10 2 0 7 -4 10 -10z m-95
-10 c0 -5 -4 -10 -10 -10 -5 0 -10 5 -10 10 0 6 5 10 10 10 6 0 10 -4 10 -10z"/>
<path d="M5070 4950 c0 -5 7 -7 15 -4 8 4 15 8 15 10 0 2 -7 4 -15 4 -8 0 -15
-4 -15 -10z"/>
<path d="M4980 4941 c0 -7 -5 -9 -12 -5 -7 5 -8 3 -3 -5 5 -9 10 -10 18 -2 6
6 8 14 4 18 -4 3 -7 1 -7 -6z"/>
<path d="M5014 4925 c-3 -8 -4 -20 -1 -27 3 -7 6 -3 6 10 1 15 5 21 13 16 7
-4 8 -3 4 4 -10 16 -15 15 -22 -3z"/>
<path d="M5084 4929 c-5 -8 -3 -9 6 -4 10 6 12 4 7 -8 -3 -9 -3 -18 1 -21 4
-3 8 4 9 14 2 23 -13 35 -23 19z"/>
<path d="M5135 4931 c-6 -11 13 -26 22 -17 4 3 1 6 -6 6 -7 0 -9 5 -6 10 3 6
4 10 1 10 -3 0 -7 -4 -11 -9z"/>
<path d="M4647 4903 c6 -15 4 -16 -9 -5 -13 11 -16 10 -14 -5 0 -10 -7 -18
-19 -20 -11 -1 -14 0 -7 3 6 3 12 10 12 15 0 14 -60 -26 -78 -52 -15 -23 -15
-23 2 -9 17 14 18 13 12 -6 -8 -26 13 -47 34 -34 13 9 13 10 0 11 -8 1 -18 1
-22 0 -9 -1 -10 13 -2 22 8 8 54 -14 49 -24 -3 -4 0 -11 6 -15 7 -4 9 -3 5 4
-3 6 -2 13 4 17 12 8 13 45 1 45 -5 0 -7 -9 -4 -20 4 -15 1 -19 -9 -15 -21 8
-19 42 3 48 12 3 23 -2 29 -14 6 -10 7 -19 3 -19 -4 0 1 -7 11 -15 11 -8 25
-15 30 -15 6 1 0 7 -14 15 -14 8 -21 14 -16 15 4 0 1 11 -7 24 -15 22 -15 25
-1 30 22 8 26 7 19 -4 -11 -17 9 -40 25 -30 13 8 12 10 -2 10 -10 0 -18 5 -18
11 0 5 6 7 13 3 6 -4 1 5 -12 19 -29 32 -33 33 -24 10z m-61 -53 c0 -11 -4
-20 -8 -20 -4 0 -8 5 -8 11 0 5 -4 7 -10 4 -5 -3 -10 -2 -10 4 0 8 14 18 30
20 3 1 6 -8 6 -19z"/>
<path d="M4834 4902 c-17 -13 -20 -22 -13 -37 9 -18 9 -18 5 3 -4 20 4 27 27
23 5 -1 5 4 1 10 -4 8 1 9 17 4 19 -5 21 -4 9 4 -20 14 -21 14 -46 -7z"/>
<path d="M4950 4910 c0 -5 5 -10 11 -10 5 0 7 5 4 10 -3 6 -8 10 -11 10 -2 0
-4 -4 -4 -10z"/>
<path d="M4985 4909 c-4 -6 -5 -12 -2 -15 2 -3 7 2 10 11 7 17 1 20 -8 4z"/>
<path d="M5309 4903 c12 -8 25 -12 28 -9 4 3 1 6 -6 6 -7 0 -10 4 -7 8 2 4 -5
9 -16 9 -21 2 -21 2 1 -14z"/>
<path d="M4895 4890 c-4 -6 1 -7 11 -3 13 5 15 3 9 -7 -5 -9 -4 -11 4 -6 6 4
9 12 6 17 -8 12 -22 12 -30 -1z"/>
<path d="M5279 4883 c-13 -16 -12 -17 4 -4 16 13 21 21 13 21 -2 0 -10 -8 -17
-17z"/>
<path d="M4770 4879 c0 -5 -5 -7 -11 -3 -8 4 -8 0 0 -15 14 -25 23 -28 14 -4
-4 11 -3 14 5 9 8 -5 10 -2 6 8 -7 18 -14 21 -14 5z"/>
<path d="M4845 4870 c-3 -6 1 -7 9 -4 18 7 21 14 7 14 -6 0 -13 -4 -16 -10z"/>
<path d="M4959 4863 c-13 -16 -12 -17 4 -4 16 13 21 21 13 21 -2 0 -10 -8 -17
-17z"/>
<path d="M5016 4872 c-3 -5 1 -9 9 -9 8 0 12 4 9 9 -3 4 -7 8 -9 8 -2 0 -6 -4
-9 -8z"/>
<path d="M4478 4810 c-16 -17 -28 -35 -28 -41 0 -5 -4 -8 -9 -4 -11 6 -25 -13
-26 -35 0 -8 -5 -14 -12 -13 -6 1 -10 -8 -8 -23 1 -13 -2 -27 -6 -30 -5 -3 -9
0 -9 6 0 6 -5 8 -11 4 -8 -4 -7 -9 2 -15 7 -4 17 -5 21 -3 5 3 20 -4 34 -15
15 -12 32 -21 38 -21 6 0 2 6 -9 12 -11 6 -21 12 -23 14 -2 1 2 13 9 26 7 12
14 39 15 58 1 19 2 37 3 40 2 9 64 6 79 -3 7 -5 10 -13 7 -18 -4 -5 -2 -9 3
-9 6 0 13 8 16 17 4 10 4 14 0 11 -8 -9 -34 16 -34 32 0 7 -7 9 -16 6 -12 -4
-14 -1 -9 14 8 26 5 25 -27 -10z m37 -12 c5 4 5 2 1 -5 -6 -12 -46 -14 -46 -3
0 14 14 19 25 10 7 -5 16 -6 20 -2z m-69 -79 c-5 -32 -18 -59 -27 -59 -6 0 -8
4 -5 9 4 5 0 11 -6 14 -9 3 -5 12 11 31 14 14 19 26 12 26 -7 0 -9 5 -5 11 8
14 24 -10 20 -32z"/>
<path d="M4420 4700 c-9 -6 -10 -10 -3 -10 6 0 15 5 18 10 8 12 4 12 -15 0z"/>
<path d="M4730 4832 c0 -5 7 -9 15 -9 8 0 12 4 9 9 -3 4 -9 8 -15 8 -5 0 -9
-4 -9 -8z"/>
<path d="M4930 4831 c0 -6 4 -13 10 -16 6 -3 7 1 4 9 -7 18 -14 21 -14 7z"/>
<path d="M4706 4813 c-6 -14 -5 -15 5 -6 7 7 10 15 7 18 -3 3 -9 -2 -12 -12z"/>
<path d="M4733 4795 c0 -8 4 -12 9 -9 5 3 6 10 3 15 -9 13 -12 11 -12 -6z"/>
<path d="M4580 4776 c0 -2 7 -7 16 -10 8 -3 12 -2 9 4 -6 10 -25 14 -25 6z"/>
<path d="M4666 4768 c3 -5 10 -6 15 -3 13 9 11 12 -6 12 -8 0 -12 -4 -9 -9z"/>
<path d="M4473 4734 c0 -14 5 -24 14 -24 8 0 11 -5 8 -10 -4 -6 -10 -8 -14 -5
-10 5 -32 -41 -24 -49 4 -3 13 -6 22 -5 12 0 12 2 -3 8 -17 7 -17 8 -2 23 9 9
26 14 38 12 21 -4 22 -4 3 5 -11 5 -15 10 -10 11 6 0 3 6 -5 13 -17 14 -24 37
-11 37 5 0 11 -7 15 -15 6 -17 26 -20 26 -4 0 5 -4 7 -10 4 -5 -3 -10 -2 -10
4 0 5 6 11 13 14 6 2 -2 4 -19 5 -27 0 -31 -3 -31 -24z"/>
<path d="M4576 4743 c-6 -14 -5 -15 5 -6 7 7 10 15 7 18 -3 3 -9 -2 -12 -12z"/>
<path d="M4536 4712 c-2 -4 0 -14 6 -22 8 -12 9 -12 5 2 -3 9 -1 19 6 22 9 3
9 5 0 5 -6 1 -14 -3 -17 -7z"/>
<path d="M4590 4708 c0 -4 4 -8 9 -8 6 0 12 4 15 8 3 5 -1 9 -9 9 -8 0 -15 -4
-15 -9z"/>
<path d="M4555 4641 c-3 -5 -2 -12 3 -15 5 -3 9 1 9 9 0 17 -3 19 -12 6z"/>
<path d="M4357 4632 c-2 -4 -3 -24 -3 -45 1 -22 -3 -36 -9 -33 -5 2 -9 14 -7
27 3 23 2 23 -12 4 -8 -12 -10 -22 -5 -24 6 -1 2 -10 -8 -18 -17 -14 -17 -14
1 -5 21 10 56 5 56 -9 0 -5 5 -9 11 -9 8 0 8 5 -1 15 -16 19 -20 97 -6 92 6
-2 10 -11 10 -20 -1 -9 2 -14 7 -11 5 3 9 0 9 -5 0 -6 5 -11 12 -11 9 0 9 3 0
12 -17 17 -15 33 3 18 18 -15 20 -4 3 14 -14 13 -55 19 -61 8z"/>
<path d="M4440 4605 c0 -5 5 -17 10 -25 5 -8 10 -10 10 -5 0 6 -5 17 -10 25
-5 8 -10 11 -10 5z"/>
<path d="M4380 4570 c0 -5 5 -10 11 -10 5 0 8 -4 4 -9 -3 -5 0 -13 6 -17 7 -4
9 -3 5 4 -3 5 -2 12 4 14 6 2 1 9 -10 16 -12 7 -20 8 -20 2z"/>
<path d="M4320 4521 c-8 -6 -19 -7 -25 -4 -5 3 -4 0 3 -8 18 -20 15 -33 -5
-18 -14 10 -13 8 2 -10 17 -21 18 -23 3 -18 -10 3 -20 1 -24 -5 -4 -6 -3 -8 3
-5 6 4 11 -4 11 -18 0 -14 -4 -22 -9 -19 -5 3 -9 0 -9 -6 0 -6 -4 -9 -8 -6 -5
3 -9 -1 -9 -9 0 -8 4 -15 9 -15 4 0 8 4 8 9 0 5 9 13 21 16 15 5 17 10 9 20
-16 19 15 42 35 25 8 -7 15 -9 15 -6 0 4 -7 14 -15 22 -20 21 -19 35 3 28 14
-5 14 -4 2 5 -8 5 -11 14 -6 18 4 4 14 -1 22 -11 8 -11 14 -15 14 -10 0 11
-20 34 -29 34 -4 0 -13 -4 -21 -9z"/>
<path d="M4410 4508 c0 -6 3 -8 7 -5 3 4 11 2 18 -3 8 -7 12 -6 12 3 0 7 -9
14 -19 14 -10 1 -18 -3 -18 -9z"/>
<path d="M4390 4501 c0 -6 4 -13 10 -16 6 -3 7 1 4 9 -7 18 -14 21 -14 7z"/>
<path d="M4370 4470 c0 -5 5 -10 10 -10 6 0 10 5 10 10 0 6 -4 10 -10 10 -5 0
-10 -4 -10 -10z"/>
<path d="M4356 4433 c-8 -20 9 -40 19 -22 6 8 4 10 -5 4 -9 -5 -10 -2 -5 14 8
25 0 29 -9 4z"/>
<path d="M4316 4425 c4 -8 8 -15 10 -15 2 0 4 7 4 15 0 8 -4 15 -10 15 -5 0
-7 -7 -4 -15z"/>
<path d="M4300 4389 c0 -5 5 -7 10 -4 6 3 10 8 10 11 0 2 -4 4 -10 4 -5 0 -10
-5 -10 -11z"/>
<path d="M4330 4390 c0 -5 5 -10 10 -10 6 0 10 5 10 10 0 6 -4 10 -10 10 -5 0
-10 -4 -10 -10z"/>
<path d="M4301 4367 c2 -1 12 -9 22 -16 15 -12 17 -12 11 3 -3 9 -13 16 -22
16 -8 0 -13 -1 -11 -3z"/>
<path d="M4373 4345 c0 -8 4 -12 9 -9 5 3 6 10 3 15 -9 13 -12 11 -12 -6z"/>
<path d="M4300 4336 c0 -2 7 -7 16 -10 8 -3 12 -2 9 4 -6 10 -25 14 -25 6z"/>
<path d="M4375 4311 c-3 -5 -2 -12 3 -15 5 -3 9 1 9 9 0 17 -3 19 -12 6z"/>
<path d="M4336 4297 c3 -10 9 -15 12 -12 3 3 0 11 -7 18 -10 9 -11 8 -5 -6z"/>
<path d="M4314 4292 c3 -5 0 -12 -6 -15 -7 -2 -10 -7 -7 -11 3 -4 12 0 18 8 9
11 9 16 0 22 -7 4 -9 3 -5 -4z"/>
<path d="M4255 4240 c3 -5 8 -10 11 -10 2 0 4 5 4 10 0 6 -5 10 -11 10 -5 0
-7 -4 -4 -10z"/>
<path d="M4310 4236 c0 -2 7 -7 16 -10 8 -3 12 -2 9 4 -6 10 -25 14 -25 6z"/>
<path d="M4239 4198 c-6 -14 -6 -57 0 -53 8 4 12 55 5 55 -2 0 -5 -1 -5 -2z"/>
<path d="M4268 4173 c6 -2 18 -2 25 0 6 3 1 5 -13 5 -14 0 -19 -2 -12 -5z"/>
<path d="M4252 4135 c-10 -22 -10 -31 -1 -39 9 -8 10 -8 5 2 -4 7 -2 19 4 27
7 8 10 19 8 26 -2 6 -9 -1 -16 -16z"/>
<path d="M4313 4119 c-1 -10 2 -21 7 -24 4 -2 7 3 6 13 0 10 5 16 14 14 8 -2
11 0 7 4 -15 15 -33 11 -34 -7z"/>
<path d="M4292 4110 c0 -14 2 -19 5 -12 2 6 2 18 0 25 -3 6 -5 1 -5 -13z"/>
<path d="M5855 4060 c-3 -6 1 -7 9 -4 18 7 21 14 7 14 -6 0 -13 -4 -16 -10z"/>
<path d="M5840 4031 c0 -10 19 -25 25 -20 1 2 -3 10 -11 17 -8 7 -14 8 -14 3z"/>
<path d="M6545 1300 c-3 -5 -2 -17 3 -26 8 -15 10 -15 15 0 5 12 3 15 -5 10
-8 -5 -9 -2 -5 9 7 19 2 23 -8 7z"/>
<path d="M6394 1029 c-3 -5 -9 -7 -14 -4 -4 3 -11 -2 -14 -11 -6 -15 -4 -15
18 0 22 14 26 14 33 1 5 -8 14 -11 20 -7 7 5 3 11 -13 19 -14 6 -26 7 -30 2z"/>
<path d="M5714 6332 c4 -3 14 -7 22 -8 9 -1 13 0 10 4 -4 3 -14 7 -22 8 -9 1
-13 0 -10 -4z"/>
<path d="M5796 6237 c3 -10 9 -15 12 -12 3 3 0 11 -7 18 -10 9 -11 8 -5 -6z"/>
<path d="M5794 6188 c-4 -7 -4 -10 1 -6 4 4 15 2 24 -5 14 -11 14 -10 2 6 -16
20 -18 21 -27 5z"/>
<path d="M5880 6196 c0 -2 8 -10 18 -17 15 -13 16 -12 3 4 -13 16 -21 21 -21
13z"/>
<path d="M5797 6159 c7 -7 15 -10 18 -7 3 3 -2 9 -12 12 -14 6 -15 5 -6 -5z"/>
<path d="M5900 6090 c-9 -6 -10 -10 -3 -10 6 0 15 5 18 10 8 12 4 12 -15 0z"/>
<path d="M5876 6052 c-3 -5 1 -9 9 -9 8 0 12 4 9 9 -3 4 -7 8 -9 8 -2 0 -6 -4
-9 -8z"/>
<path d="M5907 6009 c7 -7 15 -10 18 -7 3 3 -2 9 -12 12 -14 6 -15 5 -6 -5z"/>
<path d="M5953 5985 c0 -8 4 -12 9 -9 5 3 6 10 3 15 -9 13 -12 11 -12 -6z"/>
<path d="M5900 5970 c-8 -5 -10 -10 -5 -10 6 0 17 5 25 10 8 5 11 10 5 10 -5
0 -17 -5 -25 -10z"/>
<path d="M5920 5910 c-9 -6 -10 -10 -3 -10 6 0 15 5 18 10 8 12 4 12 -15 0z"/>
<path d="M5951 5878 c9 -16 29 -17 29 -2 0 3 -5 2 -12 -2 -7 -5 -9 -2 -6 8 4
8 0 15 -7 15 -10 0 -11 -5 -4 -19z"/>
<path d="M6035 5841 c-3 -5 -2 -12 3 -15 5 -3 9 1 9 9 0 17 -3 19 -12 6z"/>
<path d="M5940 5830 c0 -6 7 -10 15 -10 8 0 15 2 15 4 0 2 -7 6 -15 10 -8 3
-15 1 -15 -4z"/>
<path d="M5975 5810 c-3 -5 -1 -10 4 -10 6 0 11 5 11 10 0 6 -2 10 -4 10 -3 0
-8 -4 -11 -10z"/>
<path d="M5993 5783 c4 -6 3 -13 -3 -15 -6 -2 0 -9 12 -17 22 -13 22 -13 8 4
-8 10 -13 20 -12 22 2 3 0 8 -4 11 -4 4 -4 2 -1 -5z"/>
<path d="M6050 5690 c0 -5 5 -10 11 -10 5 0 7 5 4 10 -3 6 -8 10 -11 10 -2 0
-4 -4 -4 -10z"/>
<path d="M6010 5668 c0 -4 4 -8 9 -8 6 0 12 4 15 8 3 5 -1 9 -9 9 -8 0 -15 -4
-15 -9z"/>
<path d="M6039 5658 c-5 -18 -6 -39 -2 -34 4 3 11 1 18 -4 8 -7 12 -5 12 5 0
7 -5 13 -11 12 -6 -1 -10 4 -8 11 2 10 -6 19 -9 10z"/>
<path d="M6010 5616 c0 -3 9 -10 20 -16 11 -6 20 -8 20 -6 0 3 -9 10 -20 16
-11 6 -20 8 -20 6z"/>
<path d="M6020 5575 c0 -8 29 -12 39 -5 9 5 4 8 -13 8 -14 0 -26 -2 -26 -3z"/>
<path d="M6040 5546 c0 -2 7 -7 16 -10 8 -3 12 -2 9 4 -6 10 -25 14 -25 6z"/>
<path d="M6031 5517 c-8 -10 -7 -14 2 -14 8 0 14 6 14 14 0 7 -1 13 -2 13 -2
0 -8 -6 -14 -13z"/>
<path d="M6065 5509 c-4 -6 -5 -12 -2 -15 2 -3 7 2 10 11 7 17 1 20 -8 4z"/>
<path d="M6106 5492 c-3 -5 1 -9 9 -9 8 0 12 4 9 9 -3 4 -7 8 -9 8 -2 0 -6 -4
-9 -8z"/>
<path d="M6030 5480 c0 -6 7 -13 15 -16 8 -4 12 -11 8 -18 -3 -6 -2 -7 2 -3
16 14 14 36 -3 30 -10 -4 -13 -2 -8 5 4 7 2 12 -3 12 -6 0 -11 -5 -11 -10z"/>
<path d="M6104 5432 c23 -26 23 -26 23 -7 0 8 -3 13 -5 10 -3 -3 -12 1 -21 7
-10 8 -9 4 3 -10z"/>
<path d="M6071 5433 c3 -19 -2 -25 -14 -15 -10 9 -13 6 -13 -13 0 -31 6 -31
29 0 11 15 13 26 7 30 -6 4 -10 3 -9 -2z"/>
<path d="M6156 5417 c3 -10 9 -15 12 -12 3 3 0 11 -7 18 -10 9 -11 8 -5 -6z"/>
<path d="M6097 5399 c7 -7 15 -10 18 -7 3 3 -2 9 -12 12 -14 6 -15 5 -6 -5z"/>
<path d="M6075 5379 c-4 -6 -5 -12 -2 -15 2 -3 7 2 10 11 7 17 1 20 -8 4z"/>
<path d="M6110 5376 c0 -2 7 -7 16 -10 8 -3 12 -2 9 4 -6 10 -25 14 -25 6z"/>
<path d="M6051 5353 c7 -12 15 -20 18 -17 3 2 -3 12 -13 22 -17 16 -18 16 -5
-5z"/>
<path d="M6094 5359 c1 -7 10 -13 19 -15 9 -1 15 2 11 7 -3 5 -9 7 -14 4 -4
-3 -11 0 -13 5 -3 6 -4 5 -3 -1z"/>
<path d="M6063 5305 c-19 -21 -16 -27 7 -13 11 7 20 16 20 20 0 12 -14 9 -27
-7z"/>
<path d="M6090 5281 c0 -7 -4 -9 -10 -6 -5 3 -10 1 -10 -4 0 -6 4 -11 9 -11
13 0 25 20 17 27 -3 4 -6 1 -6 -6z"/>
<path d="M6126 5272 c-3 -5 1 -9 9 -9 8 0 12 4 9 9 -3 4 -7 8 -9 8 -2 0 -6 -4
-9 -8z"/>
<path d="M6090 5238 c-10 -21 -10 -21 3 -6 8 10 18 14 22 10 5 -4 5 -1 1 6
-10 17 -14 15 -26 -10z"/>
<path d="M6125 5230 c-3 -6 1 -7 9 -4 18 7 21 14 7 14 -6 0 -13 -4 -16 -10z"/>
<path d="M6094 5208 c-3 -5 -3 -12 0 -15 3 -4 6 -2 6 4 0 6 9 9 20 6 11 -3 20
-3 20 0 0 10 -40 15 -46 5z"/>
<path d="M6150 5216 c0 -2 7 -7 16 -10 8 -3 12 -2 9 4 -6 10 -25 14 -25 6z"/>
<path d="M6508 5083 c7 -3 16 -2 19 1 4 3 -2 6 -13 5 -11 0 -14 -3 -6 -6z"/>
<path d="M6521 5034 c0 -11 3 -14 6 -6 3 7 2 16 -1 19 -3 4 -6 -2 -5 -13z"/>
<path d="M6495 5020 c-11 -18 -13 -60 -3 -54 5 3 7 12 4 19 -2 7 1 18 7 24 6
6 8 13 5 16 -3 4 -9 1 -13 -5z"/>
<path d="M6533 5003 c-3 -7 -8 -11 -12 -8 -4 2 -8 -2 -8 -10 0 -22 15 -18 22
4 4 12 12 18 21 14 7 -3 14 -1 14 4 0 15 -31 11 -37 -4z"/>
<path d="M6486 4935 c-21 -32 -20 -39 2 -17 11 9 17 21 14 26 -3 5 2 7 11 3 9
-3 18 -3 21 1 13 21 -35 7 -48 -13z"/>
<path d="M6535 4931 c-3 -5 0 -13 6 -17 7 -4 9 -3 5 4 -3 5 0 13 6 15 9 4 10
6 1 6 -6 1 -14 -3 -18 -8z"/>
<path d="M6494 4908 c-4 -6 -3 -8 4 -4 5 3 13 0 15 -6 3 -8 6 -6 6 5 1 19 -14
23 -25 5z"/>
<path d="M6512 4830 c0 -14 2 -19 5 -12 2 6 2 18 0 25 -3 6 -5 1 -5 -13z"/>
<path d="M6550 4810 c0 -5 5 -10 11 -10 5 0 7 5 4 10 -3 6 -8 10 -11 10 -2 0
-4 -4 -4 -10z"/>
<path d="M6460 4788 c0 -6 12 -7 27 -3 23 5 25 4 14 -9 -9 -11 -10 -16 -2 -16
6 0 11 5 11 11 0 7 9 9 21 6 15 -4 19 -3 12 4 -14 14 -83 19 -83 7z"/>
<path d="M6510 4750 c-11 -7 -11 -10 -2 -10 8 0 10 -5 6 -12 -4 -7 -3 -9 1 -5
7 6 17 37 12 37 -1 0 -9 -5 -17 -10z"/>
<path d="M6462 4733 c-10 -4 -10 -8 -1 -19 8 -10 8 -14 0 -14 -6 0 -11 -5 -11
-11 0 -8 4 -8 14 1 8 6 12 18 9 26 -3 8 0 14 5 14 6 0 12 -10 14 -22 2 -13 9
-22 17 -20 8 2 11 -3 8 -13 -9 -21 0 -19 13 4 8 16 7 19 -8 17 -10 -2 -19 5
-22 17 -6 22 -18 28 -38 20z"/>
<path d="M6550 4709 c0 -5 5 -7 10 -4 6 3 10 8 10 11 0 2 -4 4 -10 4 -5 0 -10
-5 -10 -11z"/>
<path d="M6465 4670 c-3 -5 -2 -10 4 -10 5 0 13 5 16 10 3 6 2 10 -4 10 -5 0
-13 -4 -16 -10z"/>
<path d="M6536 4663 c-6 -14 -5 -15 5 -6 7 7 10 15 7 18 -3 3 -9 -2 -12 -12z"/>
<path d="M6484 4649 c-5 -8 -3 -9 6 -4 10 6 12 4 7 -8 -3 -9 -3 -18 1 -21 4
-3 8 4 9 14 2 23 -13 35 -23 19z"/>
<path d="M6445 4640 c-3 -6 1 -7 9 -4 18 7 21 14 7 14 -6 0 -13 -4 -16 -10z"/>
<path d="M6475 4600 c-4 -6 -4 -14 -1 -17 3 -4 6 0 6 8 0 11 2 11 10 -1 8 -13
12 -12 27 4 12 13 13 16 2 8 -11 -8 -19 -8 -26 -1 -8 8 -13 7 -18 -1z"/>
<path d="M6450 4572 c0 -5 7 -13 16 -16 22 -8 24 -8 24 6 0 6 -3 8 -7 5 -3 -4
-12 -2 -20 4 -8 7 -13 8 -13 1z"/>
<path d="M6510 4555 c0 -8 2 -15 4 -15 2 0 6 7 10 15 3 8 1 15 -4 15 -6 0 -10
-7 -10 -15z"/>
<path d="M6463 4529 c15 -9 16 -13 6 -27 -11 -14 -11 -15 1 -5 10 10 16 9 25
-4 10 -13 14 -13 20 -3 6 9 4 11 -5 5 -10 -6 -12 -3 -8 13 4 12 1 25 -4 29 -7
3 -8 1 -4 -5 4 -7 3 -12 -3 -12 -5 0 -13 5 -16 10 -3 6 -12 10 -18 10 -7 0 -4
-5 6 -11z"/>
<path d="M6545 4510 c10 -11 20 -20 23 -20 3 0 -3 9 -13 20 -10 11 -20 20 -23
20 -3 0 3 -9 13 -20z"/>
<path d="M6090 4490 c0 -5 5 -10 11 -10 5 0 7 5 4 10 -3 6 -8 10 -11 10 -2 0
-4 -4 -4 -10z"/>
<path d="M6070 4481 c0 -6 4 -13 10 -16 6 -3 7 1 4 9 -7 18 -14 21 -14 7z"/>
<path d="M6520 4447 c-8 -7 -16 -20 -16 -29 -2 -25 2 -22 20 12 8 17 14 30 13
30 -1 0 -9 -6 -17 -13z"/>
<path d="M6075 4430 c-3 -5 -1 -10 4 -10 6 0 11 5 11 10 0 6 -2 10 -4 10 -3 0
-8 -4 -11 -10z"/>
<path d="M6030 4390 c0 -5 7 -7 15 -4 8 4 15 8 15 10 0 2 -7 4 -15 4 -8 0 -15
-4 -15 -10z"/>
<path d="M6514 4388 c-4 -7 -4 -10 1 -6 4 4 14 3 22 -4 11 -8 12 -7 7 6 -7 19
-20 21 -30 4z"/>
<path d="M6596 4383 c-6 -14 -5 -15 5 -6 7 7 10 15 7 18 -3 3 -9 -2 -12 -12z"/>
<path d="M5975 4363 c0 -18 6 -29 18 -31 9 -2 17 1 17 7 0 6 -7 8 -15 5 -8 -4
-15 -2 -15 4 0 5 6 12 13 14 18 7 38 -2 31 -14 -4 -7 -2 -8 5 -4 16 10 -6 39
-24 32 -7 -2 -17 0 -22 5 -5 5 -9 -2 -8 -18z"/>
<path d="M6110 4369 c0 -5 5 -7 10 -4 6 3 10 8 10 11 0 2 -4 4 -10 4 -5 0 -10
-5 -10 -11z"/>
<path d="M6073 4355 c0 -8 4 -12 9 -9 5 3 6 10 3 15 -9 13 -12 11 -12 -6z"/>
<path d="M6514 4349 c-10 -17 9 -30 26 -18 12 9 12 10 -4 5 -13 -5 -17 -2 -12
9 6 17 0 20 -10 4z"/>
<path d="M5964 4322 c3 -6 0 -12 -6 -15 -7 -2 2 -4 20 -5 17 0 32 4 32 10 0 6
-3 8 -6 5 -4 -3 -16 -2 -27 4 -12 7 -17 7 -13 1z"/>
<path d="M6490 4310 c0 -5 5 -10 10 -10 6 0 10 5 10 10 0 6 -4 10 -10 10 -5 0
-10 -4 -10 -10z"/>
<path d="M6030 4300 c-9 -6 -10 -10 -3 -10 6 0 15 5 18 10 8 12 4 12 -15 0z"/>
<path d="M6514 4289 c-3 -6 -1 -16 5 -22 9 -9 10 -7 5 7 -6 15 -4 17 6 11 9
-5 11 -4 6 3 -9 15 -13 15 -22 1z"/>
<path d="M6575 4290 c-3 -5 -1 -10 4 -10 6 0 11 5 11 10 0 6 -2 10 -4 10 -3 0
-8 -4 -11 -10z"/>
<path d="M6000 4283 c0 -19 21 -27 33 -13 9 10 9 11 -2 5 -8 -4 -17 -2 -22 6
-6 9 -9 10 -9 2z"/>
<path d="M6480 4283 c5 -2 8 -8 5 -13 -3 -4 2 -13 10 -20 10 -9 15 -9 15 -1 0
6 -4 11 -10 11 -5 0 -9 5 -7 11 1 6 -4 13 -11 15 -7 1 -8 0 -2 -3z"/>
<path d="M5985 4239 c-4 -11 -11 -16 -18 -12 -7 4 -6 -1 2 -10 7 -9 19 -17 25
-17 8 0 7 3 -1 8 -14 9 -5 27 16 34 12 3 12 5 -1 11 -12 4 -19 0 -23 -14z"/>
<path d="M5925 4229 c-4 -6 -5 -12 -2 -15 2 -3 7 2 10 11 7 17 1 20 -8 4z"/>
<path d="M6508 4223 c6 -2 10 -9 7 -14 -4 -5 1 -6 10 -2 13 5 14 7 3 14 -7 5
-17 8 -23 8 -5 0 -4 -3 3 -6z"/>
<path d="M6014 4208 c-4 -7 -4 -10 1 -6 4 4 15 2 24 -5 14 -11 14 -10 2 6 -16
20 -18 21 -27 5z"/>
<path d="M6485 4190 c-1 -16 3 -26 7 -24 4 3 8 -2 8 -10 0 -8 4 -17 9 -20 5
-4 7 3 4 14 -3 11 -9 23 -14 25 -4 3 -6 12 -3 19 3 8 2 16 -3 19 -4 3 -8 -8
-8 -23z"/>
<path d="M6016 4177 c3 -10 9 -15 12 -12 3 3 0 11 -7 18 -10 9 -11 8 -5 -6z"/>
<path d="M6516 4177 c3 -10 9 -15 12 -12 3 3 0 11 -7 18 -10 9 -11 8 -5 -6z"/>
<path d="M6570 4170 c0 -5 5 -10 11 -10 5 0 7 5 4 10 -3 6 -8 10 -11 10 -2 0
-4 -4 -4 -10z"/>
<path d="M5975 4161 c-3 -6 5 -15 17 -21 21 -10 21 -10 6 3 -10 8 -15 17 -11
20 3 4 4 7 0 7 -3 0 -8 -4 -12 -9z"/>
<path d="M5925 4150 c-3 -5 -2 -10 4 -10 5 0 13 5 16 10 3 6 2 10 -4 10 -5 0
-13 -4 -16 -10z"/>
<path d="M6546 4146 c6 -15 4 -17 -6 -11 -9 6 -11 4 -5 -4 5 -9 10 -10 18 -2
8 8 7 14 -2 24 -10 10 -11 8 -5 -7z"/>
<path d="M6474 4098 c-10 -12 -13 -18 -6 -14 6 4 12 3 12 -3 0 -5 -5 -12 -10
-14 -6 -3 -5 -4 2 -3 7 2 13 10 13 20 0 9 7 21 15 26 8 5 10 10 4 10 -6 0 -19
-10 -30 -22z"/>
<path d="M6010 4089 c0 -5 5 -7 10 -4 6 3 10 8 10 11 0 2 -4 4 -10 4 -5 0 -10
-5 -10 -11z"/>
<path d="M6508 4093 c7 -3 16 -2 19 1 4 3 -2 6 -13 5 -11 0 -14 -3 -6 -6z"/>
<path d="M6437 4077 c-3 -8 -2 -20 3 -26 5 -9 8 -4 8 13 0 29 -3 32 -11 13z"/>
<path d="M5950 4068 c0 -9 7 -19 16 -22 15 -6 15 -4 3 11 -7 10 -15 20 -16 22
-2 2 -3 -3 -3 -11z"/>
<path d="M6533 4063 c0 -9 4 -10 14 -2 7 6 13 12 13 14 0 1 -6 2 -13 2 -8 0
-14 -6 -14 -14z"/>
<path d="M6360 4050 c-9 -6 -10 -10 -3 -10 6 0 15 5 18 10 8 12 4 12 -15 0z"/>
<path d="M6396 4048 c3 -5 8 -7 12 -4 3 3 11 -2 19 -12 13 -16 14 -16 5 2 -5
11 -17 21 -26 22 -9 1 -13 -2 -10 -8z"/>
<path d="M6510 4053 c0 -6 8 -17 18 -24 16 -13 16 -13 2 6 -8 11 -16 22 -17
24 -2 2 -3 0 -3 -6z"/>
<path d="M6467 4033 c7 -2 9 -11 6 -19 -3 -8 1 -14 8 -14 7 0 9 3 6 7 -4 3 -3
11 3 17 6 8 2 12 -13 13 -12 0 -17 -1 -10 -4z"/>
<path d="M5918 4013 c7 -3 16 -2 19 1 4 3 -2 6 -13 5 -11 0 -14 -3 -6 -6z"/>
<path d="M6375 4010 c3 -5 8 -10 11 -10 2 0 4 5 4 10 0 6 -5 10 -11 10 -5 0
-7 -4 -4 -10z"/>
<path d="M6440 4010 c-9 -6 -10 -10 -3 -10 6 0 15 5 18 10 8 12 4 12 -15 0z"/>
<path d="M5911 3960 c-13 -11 -19 -20 -14 -20 6 0 18 9 28 20 23 25 17 25 -14
0z"/>
<path d="M5815 3910 c3 -5 16 -10 28 -9 21 0 21 1 2 9 -28 12 -37 12 -30 0z"/>
<path d="M5920 3910 c-9 -6 -10 -10 -3 -10 6 0 15 5 18 10 8 12 4 12 -15 0z"/>
<path d="M5846 3865 c4 -8 8 -15 10 -15 2 0 4 7 4 15 0 8 -4 15 -10 15 -5 0
-7 -7 -4 -15z"/>
<path d="M5913 3865 c0 -8 4 -12 9 -9 4 3 8 9 8 15 0 5 -4 9 -8 9 -5 0 -9 -7
-9 -15z"/>
<path d="M5787 3804 c-16 -9 -27 -18 -24 -21 3 -2 17 3 32 13 27 18 28 18 21
-3 -4 -12 -2 -24 3 -28 7 -4 8 1 4 12 -6 17 -6 17 14 0 16 -14 23 -15 29 -6 4
7 3 10 -4 5 -5 -3 -19 5 -29 18 -17 24 -19 24 -46 10z"/>
<path d="M5790 3771 c0 -10 29 -36 34 -30 1 2 -6 12 -16 22 -10 9 -18 13 -18
8z"/>
<path d="M5685 3750 c-3 -5 -1 -10 4 -10 6 0 11 5 11 10 0 6 -2 10 -4 10 -3 0
-8 -4 -11 -10z"/>
<path d="M5750 3730 c0 -6 7 -10 15 -10 8 0 15 2 15 4 0 2 -7 6 -15 10 -8 3
-15 1 -15 -4z"/>
<path d="M5794 3692 c4 -3 14 -7 22 -8 9 -1 13 0 10 4 -4 3 -14 7 -22 8 -9 1
-13 0 -10 -4z"/>
<path d="M5644 3678 c-5 -7 -9 -15 -9 -18 0 -3 -11 -18 -25 -33 -14 -16 -23
-31 -22 -34 2 -3 -2 -10 -10 -15 -9 -7 -7 -8 7 -3 11 4 30 7 42 7 14 -1 22 4
22 16 1 9 1 24 2 32 1 8 0 21 -2 29 -2 7 2 16 9 18 7 3 12 1 10 -4 -3 -12 12
-53 20 -53 4 0 14 5 22 11 13 9 12 10 -2 5 -11 -3 -22 2 -28 14 -7 14 -7 20 0
20 5 0 10 -4 10 -10 0 -5 5 -10 11 -10 5 0 7 5 3 12 -5 8 -2 9 9 5 10 -3 17
-2 17 3 0 5 -10 9 -22 9 -13 -1 -30 1 -39 5 -10 4 -20 2 -25 -6z m-4 -53 c-6
-8 -9 -18 -6 -23 3 -5 -5 -9 -18 -9 l-24 0 21 23 c22 25 48 34 27 9z"/>
<path d="M5735 3650 c-5 -9 -4 -11 3 -6 16 10 15 -6 0 -24 -10 -11 -9 -11 6 0
11 8 21 14 23 12 3 -2 7 -1 9 2 2 3 1 4 -3 1 -3 -3 -11 3 -18 12 -9 13 -14 13
-20 3z"/>
<path d="M5660 3612 c0 -5 11 -14 25 -20 14 -6 25 -10 25 -8 0 2 -11 11 -25
20 -14 9 -25 13 -25 8z"/>
<path d="M5710 3611 c0 -6 4 -13 10 -16 6 -3 7 1 4 9 -7 18 -14 21 -14 7z"/>
<path d="M5796 3612 c-3 -5 1 -9 9 -9 8 0 12 4 9 9 -3 4 -7 8 -9 8 -2 0 -6 -4
-9 -8z"/>
<path d="M5668 3573 c7 -3 16 -2 19 1 4 3 -2 6 -13 5 -11 0 -14 -3 -6 -6z"/>
<path d="M5640 3555 c0 -8 0 -18 1 -21 0 -4 -5 -11 -13 -15 -7 -5 -8 -9 -3 -9
6 0 17 5 25 10 8 5 10 10 3 10 -6 0 -9 9 -6 20 3 11 3 20 -1 20 -3 0 -6 -7 -6
-15z"/>
<path d="M5675 3530 c-3 -6 1 -7 9 -4 18 7 21 14 7 14 -6 0 -13 -4 -16 -10z"/>
<path d="M5614 3485 c-3 -8 -4 -20 -2 -27 3 -7 7 -1 10 15 6 29 1 36 -8 12z"/>
<path d="M5635 3479 c-4 -6 -5 -12 -2 -15 2 -3 7 2 10 11 7 17 1 20 -8 4z"/>
<path d="M5560 3470 c0 -5 5 -10 10 -10 6 0 10 5 10 10 0 6 -4 10 -10 10 -5 0
-10 -4 -10 -10z"/>
<path d="M5540 3452 c0 -4 9 -13 20 -20 11 -7 20 -9 20 -4 0 4 -9 13 -20 20
-11 7 -20 9 -20 4z"/>
<path d="M5536 3412 c-2 -4 0 -14 6 -22 8 -12 9 -11 4 4 -5 14 -2 17 9 12 9
-3 13 -2 10 4 -7 12 -22 13 -29 2z"/>
<path d="M5516 3375 c-9 -26 -7 -32 5 -12 6 10 9 21 6 23 -2 3 -7 -2 -11 -11z"/>
<path d="M5433 3334 c-27 -29 -27 -30 -9 -37 10 -4 13 -1 9 9 -3 9 0 13 8 11
8 -2 10 -2 6 1 -5 2 -1 13 9 23 9 10 13 19 8 18 -5 -1 -19 -12 -31 -25z"/>
<path d="M5470 3330 c0 -5 5 -10 10 -10 6 0 10 5 10 10 0 6 -4 10 -10 10 -5 0
-10 -4 -10 -10z"/>
<path d="M5490 3250 c0 -5 5 -10 11 -10 5 0 7 5 4 10 -3 6 -8 10 -11 10 -2 0
-4 -4 -4 -10z"/>
<path d="M2116 3063 c-6 -14 -5 -15 5 -6 7 7 10 15 7 18 -3 3 -9 -2 -12 -12z"/>
<path d="M2296 2923 c-6 -14 -5 -15 5 -6 7 7 10 15 7 18 -3 3 -9 -2 -12 -12z"/>
<path d="M2427 2869 c7 -7 15 -10 18 -7 3 3 -2 9 -12 12 -14 6 -15 5 -6 -5z"/>
<path d="M2575 2770 c3 -5 8 -10 11 -10 2 0 4 5 4 10 0 6 -5 10 -11 10 -5 0
-7 -4 -4 -10z"/>
<path d="M2706 2728 c3 -5 10 -6 15 -3 13 9 11 12 -6 12 -8 0 -12 -4 -9 -9z"/>
<path d="M2726 2715 c-11 -8 -15 -15 -9 -15 6 0 16 7 23 15 16 19 11 19 -14 0z"/>
<path d="M4305 2691 c2 -14 -2 -32 -7 -38 -7 -9 -7 -13 1 -13 6 0 11 6 11 13
0 8 4 7 11 -3 8 -12 9 -9 4 10 -6 24 -5 24 9 6 20 -25 20 -8 1 18 -8 10 -12
22 -10 26 2 4 -2 7 -9 7 -9 0 -13 -10 -11 -26z"/>
<path d="M4532 2707 c-10 -12 -8 -14 14 -11 14 1 29 6 32 10 4 4 -1 4 -10 1
-9 -3 -18 -1 -20 5 -2 6 -9 4 -16 -5z"/>
<path d="M2840 2701 c0 -6 4 -13 10 -16 6 -3 7 1 4 9 -7 18 -14 21 -14 7z"/>
<path d="M4258 2678 c-31 -36 -38 -57 -10 -30 11 9 17 20 15 25 -2 4 0 7 6 7
5 0 11 -6 14 -12 2 -7 4 -1 4 15 0 15 0 27 -1 27 0 0 -13 -15 -28 -32z"/>
<path d="M4444 2703 c4 -7 -2 -14 -14 -18 -11 -3 -20 -11 -20 -16 0 -6 5 -7
12 -3 8 5 9 2 5 -10 -4 -11 -3 -15 4 -11 6 4 8 13 5 20 -2 7 2 16 11 19 11 5
14 2 9 -11 -6 -15 -5 -16 5 -5 11 10 10 16 -5 30 -11 9 -16 12 -12 5z"/>
<path d="M2896 2687 c3 -10 9 -15 12 -12 3 3 0 11 -7 18 -10 9 -11 8 -5 -6z"/>
<path d="M4195 2679 c-4 -6 -13 -8 -21 -5 -7 3 -16 1 -20 -5 -11 -19 5 -22 30
-5 28 18 36 20 36 8 0 -4 -11 -14 -25 -22 -18 -11 -22 -19 -15 -30 8 -13 10
-13 10 1 0 9 10 23 22 31 12 8 18 19 14 26 -9 15 -23 15 -31 1z"/>
<path d="M2911 2658 c-13 -21 -13 -22 2 -10 9 8 22 10 29 6 10 -6 9 -3 -1 9
-17 21 -13 21 -30 -5z"/>
<path d="M4477 2665 c-4 -8 -3 -16 1 -19 4 -3 9 4 9 15 2 23 -3 25 -10 4z"/>
<path d="M4524 2672 c4 -3 14 -7 22 -8 9 -1 13 0 10 4 -4 3 -14 7 -22 8 -9 1
-13 0 -10 -4z"/>
<path d="M4573 2655 c0 -8 4 -12 9 -9 5 3 6 10 3 15 -9 13 -12 11 -12 -6z"/>
<path d="M2866 2648 c3 -5 10 -6 15 -3 13 9 11 12 -6 12 -8 0 -12 -4 -9 -9z"/>
<path d="M2953 2642 c-8 -14 -8 -19 1 -19 7 0 13 9 13 19 1 10 1 18 0 18 -1 0
-7 -8 -14 -18z"/>
<path d="M3058 2648 c5 -5 16 -8 23 -6 8 3 3 7 -10 11 -17 4 -21 3 -13 -5z"/>
<path d="M4390 2650 c0 -5 5 -10 11 -10 5 0 7 5 4 10 -3 6 -8 10 -11 10 -2 0
-4 -4 -4 -10z"/>
<path d="M4271 2634 c0 -11 3 -14 6 -6 3 7 2 16 -1 19 -3 4 -6 -2 -5 -13z"/>
<path d="M3194 2623 c19 -23 37 -22 35 0 0 8 -2 8 -6 -1 -4 -10 -10 -9 -27 5
l-21 18 19 -22z"/>
<path d="M3992 2624 c10 -10 20 -16 22 -13 3 3 -5 11 -17 18 -21 13 -21 12 -5
-5z"/>
<path d="M4335 2630 c-3 -5 -1 -10 4 -10 6 0 11 5 11 10 0 6 -2 10 -4 10 -3 0
-8 -4 -11 -10z"/>
<path d="M3141 2626 c2 -2 15 -9 29 -15 24 -11 24 -11 6 3 -16 13 -49 24 -35
12z"/>
<path d="M3026 2608 c3 -4 11 -5 19 -1 21 7 19 12 -4 10 -11 0 -18 -5 -15 -9z"/>
<path d="M3236 2603 c-6 -14 -5 -15 5 -6 7 7 10 15 7 18 -3 3 -9 -2 -12 -12z"/>
<path d="M3327 2603 c4 -10 2 -14 -5 -9 -6 3 -14 1 -18 -5 -5 -8 -3 -9 6 -4 9
6 12 4 8 -7 -4 -8 -1 -15 7 -15 8 0 11 7 7 15 -4 11 -1 13 7 7 10 -6 11 -3 2
14 -14 25 -23 28 -14 4z"/>
<path d="M3787 2614 c-10 -11 -8 -34 3 -34 5 0 7 7 4 15 -7 17 11 21 19 5 3
-6 4 -5 3 2 -3 14 -20 21 -29 12z"/>
<path d="M4093 2607 c-3 -5 -2 -11 1 -14 3 -4 6 -2 6 3 0 5 9 10 19 11 14 1
18 -3 14 -15 -4 -14 -3 -14 5 -2 6 8 9 17 6 21 -6 10 -44 7 -51 -4z"/>
<path d="M4213 2605 c-3 -9 -3 -18 -1 -21 3 -3 8 4 11 16 6 23 -1 27 -10 5z"/>
<path d="M2950 2606 c0 -2 8 -10 18 -17 15 -13 16 -12 3 4 -13 16 -21 21 -21
13z"/>
<path d="M3095 2600 c-4 -6 -11 -8 -16 -5 -5 4 -9 1 -9 -4 0 -16 16 -13 30 4
7 8 10 15 7 15 -3 0 -9 -5 -12 -10z"/>
<path d="M3521 2601 c-10 -7 -11 -12 -1 -27 9 -16 11 -16 6 -2 -3 10 2 22 12
27 9 6 13 10 7 11 -5 0 -16 -4 -24 -9z"/>
<path d="M3552 2594 c-7 -8 -8 -14 -3 -14 10 0 25 19 20 25 -2 1 -10 -3 -17
-11z"/>
<path d="M3655 2600 c-4 -6 1 -7 11 -3 12 4 15 3 10 -5 -5 -8 -2 -10 9 -6 10
4 15 2 13 -7 -5 -23 40 -18 57 7 13 21 13 23 0 18 -8 -4 -15 -11 -15 -18 0 -6
-9 -12 -20 -13 -11 -1 -18 2 -15 7 3 5 -3 14 -14 19 -24 13 -28 14 -36 1z"/>
<path d="M3873 2584 c0 -17 2 -22 7 -13 5 6 6 18 3 26 -8 19 -10 16 -10 -13z"/>
<path d="M4290 2606 c0 -2 8 -10 18 -17 15 -13 16 -12 3 4 -13 16 -21 21 -21
13z"/>
<path d="M3260 2589 c0 -5 5 -7 10 -4 6 3 10 8 10 11 0 2 -4 4 -10 4 -5 0 -10
-5 -10 -11z"/>
<path d="M3365 2590 c-3 -6 1 -7 9 -4 18 7 21 14 7 14 -6 0 -13 -4 -16 -10z"/>
<path d="M3630 2590 c0 -6 6 -13 14 -16 8 -3 12 -13 9 -25 -3 -10 -3 -19 0
-19 15 0 12 40 -4 54 -11 9 -19 11 -19 6z"/>
<path d="M3390 2580 c-9 -6 -10 -10 -3 -10 6 0 15 5 18 10 8 12 4 12 -15 0z"/>
<path d="M3590 2580 c0 -5 6 -9 13 -7 6 1 11 -4 9 -11 -1 -8 2 -11 8 -7 8 5 7
11 -1 21 -13 16 -29 18 -29 4z"/>
<path d="M3830 2580 c0 -5 7 -7 15 -4 8 4 15 8 15 10 0 2 -7 4 -15 4 -8 0 -15
-4 -15 -10z"/>
<path d="M3247 2569 c7 -7 15 -10 18 -7 3 3 -2 9 -12 12 -14 6 -15 5 -6 -5z"/>
<path d="M3415 2570 c-3 -6 1 -7 9 -4 18 7 21 14 7 14 -6 0 -13 -4 -16 -10z"/>
<path d="M3496 2567 c4 -12 -2 -14 -30 -12 -24 3 -39 -1 -48 -13 -11 -15 -11
-15 2 -6 16 12 58 13 75 2 6 -4 11 2 12 12 1 11 -2 22 -8 25 -5 3 -6 0 -3 -8z"/>
<path d="M3756 2565 c-9 -26 -7 -32 5 -12 6 10 9 21 6 23 -2 3 -7 -2 -11 -11z"/>
<path d="M3895 2571 c-6 -11 13 -26 22 -17 4 3 1 6 -6 6 -7 0 -9 5 -6 10 3 6
4 10 1 10 -3 0 -7 -4 -11 -9z"/>
<path d="M3950 2570 c0 -5 5 -10 10 -10 6 0 10 5 10 10 0 6 -4 10 -10 10 -5 0
-10 -4 -10 -10z"/>
<path d="M4079 2563 c-13 -16 -12 -17 4 -4 16 13 21 21 13 21 -2 0 -10 -8 -17
-17z"/>
<path d="M4136 2557 c3 -10 9 -15 12 -12 3 3 0 11 -7 18 -10 9 -11 8 -5 -6z"/>
<path d="M3093 2545 c0 -8 4 -12 9 -9 5 3 6 10 3 15 -9 13 -12 11 -12 -6z"/>
<path d="M3231 2543 c7 -12 15 -20 18 -17 3 2 -3 12 -13 22 -17 16 -18 16 -5
-5z"/>
<path d="M3373 2540 c1 -21 10 -18 13 5 1 8 -2 15 -6 15 -5 0 -8 -9 -7 -20z"/>
<path d="M3535 2542 c-4 -11 -2 -12 7 -5 7 6 21 9 31 8 9 -2 17 0 17 5 0 14
-49 8 -55 -8z"/>
<path d="M3675 2550 c-3 -5 -1 -10 4 -10 6 0 11 5 11 10 0 6 -2 10 -4 10 -3 0
-8 -4 -11 -10z"/>
<path d="M3776 2544 c-5 -13 -4 -14 7 -6 8 7 17 9 20 5 4 -3 7 -1 7 5 0 18
-27 14 -34 -4z"/>
<path d="M3295 2530 c3 -5 8 -10 11 -10 2 0 4 5 4 10 0 6 -5 10 -11 10 -5 0
-7 -4 -4 -10z"/>
<path d="M3595 2530 c-3 -5 -1 -10 4 -10 6 0 11 5 11 10 0 6 -2 10 -4 10 -3 0
-8 -4 -11 -10z"/>
<path d="M3715 2530 c-3 -5 -1 -10 4 -10 6 0 11 5 11 10 0 6 -2 10 -4 10 -3 0
-8 -4 -11 -10z"/>
<path d="M3455 2510 c3 -5 8 -10 11 -10 2 0 4 5 4 10 0 6 -5 10 -11 10 -5 0
-7 -4 -4 -10z"/>
<path d="M3635 2491 c-3 -5 -2 -12 3 -15 5 -3 9 1 9 9 0 17 -3 19 -12 6z"/>
<path d="M5470 2310 c0 -5 5 -10 11 -10 5 0 7 5 4 10 -3 6 -8 10 -11 10 -2 0
-4 -4 -4 -10z"/>
<path d="M5615 2290 c3 -5 8 -10 11 -10 2 0 4 5 4 10 0 6 -5 10 -11 10 -5 0
-7 -4 -4 -10z"/>
<path d="M6595 2250 c6 -30 16 -40 12 -12 -2 12 -6 24 -10 28 -3 4 -4 -4 -2
-16z"/>
<path d="M6630 2132 c0 -5 7 -9 15 -9 8 0 12 4 9 9 -3 4 -9 8 -15 8 -5 0 -9
-4 -9 -8z"/>
<path d="M6661 1986 c-9 -10 -6 -17 13 -30 30 -19 36 -20 36 -5 0 5 -3 8 -8 5
-4 -2 -15 2 -25 9 -18 13 -18 14 0 24 10 6 13 11 7 11 -6 0 -17 -6 -23 -14z"/>
<path d="M6650 1871 c0 -9 30 -24 36 -18 2 1 -6 8 -16 15 -11 7 -20 8 -20 3z"/>
<path d="M6750 1853 c0 -6 8 -17 18 -24 16 -13 16 -13 2 6 -8 11 -16 22 -17
24 -2 2 -3 0 -3 -6z"/>
<path d="M6690 1840 c-9 -6 -10 -10 -3 -10 6 0 15 5 18 10 8 12 4 12 -15 0z"/>
<path d="M6650 1830 c0 -5 9 -14 20 -20 14 -7 20 -7 20 0 0 5 -7 10 -16 10 -8
0 -12 5 -9 10 3 6 1 10 -4 10 -6 0 -11 -4 -11 -10z"/>
<path d="M6700 1801 c0 -6 4 -13 10 -16 6 -3 7 1 4 9 -7 18 -14 21 -14 7z"/>
<path d="M6662 1786 c7 -8 15 -12 17 -11 5 6 -10 25 -20 25 -5 0 -4 -6 3 -14z"/>
<path d="M6733 1785 c0 -8 4 -12 9 -9 5 3 6 10 3 15 -9 13 -12 11 -12 -6z"/>
<path d="M6700 1723 c0 -6 8 -17 18 -24 16 -13 16 -13 2 6 -8 11 -16 22 -17
24 -2 2 -3 0 -3 -6z"/>
<path d="M6713 1620 c-1 -11 2 -20 5 -20 4 0 8 9 9 20 1 11 -2 20 -5 20 -4 0
-8 -9 -9 -20z"/>
<path d="M3774 1599 c3 -17 33 -20 33 -3 0 10 -4 11 -13 3 -8 -7 -14 -6 -17 1
-3 6 -5 6 -3 -1z"/>
<path d="M3825 1590 c-3 -6 1 -7 9 -4 18 7 21 14 7 14 -6 0 -13 -4 -16 -10z"/>
<path d="M6678 1593 c7 -3 16 -2 19 1 4 3 -2 6 -13 5 -11 0 -14 -3 -6 -6z"/>
<path d="M6693 1573 c4 -6 1 -14 -5 -17 -11 -5 -11 -7 0 -12 6 -3 9 -11 6 -16
-4 -6 -3 -8 3 -5 11 7 10 43 -2 54 -4 5 -5 3 -2 -4z"/>
<path d="M6750 1570 c0 -5 5 -10 11 -10 5 0 7 5 4 10 -3 6 -8 10 -11 10 -2 0
-4 -4 -4 -10z"/>
<path d="M3766 1547 c3 -10 9 -15 12 -12 3 3 0 11 -7 18 -10 9 -11 8 -5 -6z"/>
<path d="M3799 1558 c-5 -18 -6 -38 -1 -34 7 8 12 36 6 36 -2 0 -4 -1 -5 -2z"/>
<path d="M6750 1531 c0 -6 4 -13 10 -16 6 -3 7 1 4 9 -7 18 -14 21 -14 7z"/>
<path d="M3802 1508 c-7 -7 -12 -17 -12 -22 0 -6 5 -3 11 7 6 9 15 14 21 11 7
-4 8 -2 4 4 -9 15 -9 15 -24 0z"/>
<path d="M3855 1510 c3 -5 8 -10 11 -10 2 0 4 5 4 10 0 6 -5 10 -11 10 -5 0
-7 -4 -4 -10z"/>
<path d="M3820 1450 c-8 -5 -10 -10 -5 -10 6 0 17 5 25 10 8 5 11 10 5 10 -5
0 -17 -5 -25 -10z"/>
<path d="M6713 1453 c4 -3 1 -13 -6 -22 -11 -14 -10 -14 5 -2 16 12 16 31 1
31 -4 0 -3 -3 0 -7z"/>
<path d="M3840 1410 c-9 -6 -10 -10 -3 -10 6 0 15 5 18 10 8 12 4 12 -15 0z"/>
<path d="M6686 1394 c-20 -19 -20 -25 -2 -18 8 3 17 12 20 20 7 18 1 18 -18
-2z"/>
<path d="M3840 1386 c0 -2 7 -7 16 -10 8 -3 12 -2 9 4 -6 10 -25 14 -25 6z"/>
<path d="M6736 1372 c-3 -5 1 -9 9 -9 8 0 12 4 9 9 -3 4 -7 8 -9 8 -2 0 -6 -4
-9 -8z"/>
<path d="M6695 1360 c-4 -6 -16 -8 -28 -4 -12 3 -19 3 -15 -1 14 -14 55 -13
55 1 0 17 -4 18 -12 4z"/>
<path d="M6620 1349 c0 -5 5 -7 10 -4 6 3 10 8 10 11 0 2 -4 4 -10 4 -5 0 -10
-5 -10 -11z"/>
<path d="M3896 1337 c3 -10 9 -15 12 -12 3 3 0 11 -7 18 -10 9 -11 8 -5 -6z"/>
<path d="M6630 1329 c-12 -8 -10 -9 9 -4 17 5 22 4 16 -5 -5 -9 -4 -11 4 -6 6
4 9 12 6 17 -8 12 -16 11 -35 -2z"/>
<path d="M6586 1244 c-8 -20 0 -32 14 -18 5 5 5 15 1 22 -6 11 -10 10 -15 -4z"/>
<path d="M6666 1248 c3 -4 9 -8 15 -8 5 0 9 4 9 8 0 5 -7 9 -15 9 -8 0 -12 -4
-9 -9z"/>
<path d="M6675 1201 c-3 -5 -2 -12 3 -15 5 -3 9 1 9 9 0 17 -3 19 -12 6z"/>
<path d="M6620 1195 c0 -2 6 -8 13 -14 10 -8 14 -7 14 2 0 8 -6 14 -14 14 -7
0 -13 -1 -13 -2z"/>
<path d="M6597 1163 c3 -7 6 -13 8 -13 2 0 5 6 8 13 3 8 -1 14 -8 14 -7 0 -11
-6 -8 -14z"/>
<path d="M6575 1149 c-4 -6 -5 -12 -2 -15 2 -3 7 2 10 11 7 17 1 20 -8 4z"/>
<path d="M6553 1102 c0 -12 5 -22 9 -22 11 0 10 12 -2 30 -7 12 -9 10 -7 -8z"/>
<path d="M6500 1089 c0 -5 5 -7 10 -4 6 3 10 8 10 11 0 2 -4 4 -10 4 -5 0 -10
-5 -10 -11z"/>
<path d="M6525 1070 c3 -5 8 -10 11 -10 2 0 4 5 4 10 0 6 -5 10 -11 10 -5 0
-7 -4 -4 -10z"/>
<path d="M6551 1057 c-8 -10 -7 -14 2 -14 8 0 14 6 14 14 0 7 -1 13 -2 13 -2
0 -8 -6 -14 -13z"/>
<path d="M6514 1052 c3 -5 0 -12 -6 -15 -7 -2 -10 -7 -7 -11 3 -4 12 0 18 8 9
11 9 16 0 22 -7 4 -9 3 -5 -4z"/>
<path d="M6586 1028 c3 -5 10 -6 15 -3 13 9 11 12 -6 12 -8 0 -12 -4 -9 -9z"/>
<path d="M6477 1005 c-4 -8 -3 -16 1 -19 4 -3 9 4 9 15 2 23 -3 25 -10 4z"/>
<path d="M6546 1008 c3 -5 10 -6 15 -3 13 9 11 12 -6 12 -8 0 -12 -4 -9 -9z"/>
<path d="M6453 964 c-3 -8 -1 -20 5 -26 8 -8 9 -4 5 12 -5 17 -3 21 7 15 9 -5
11 -4 6 3 -10 16 -15 15 -23 -4z"/>
<path d="M6296 942 c-6 -11 21 -26 42 -23 7 1 12 -2 11 -6 -3 -20 2 -34 11
-28 6 3 10 -1 10 -9 0 -8 4 -18 10 -21 14 -8 0 27 -15 40 -7 6 -14 15 -16 20
-2 6 -10 10 -17 10 -7 0 -17 6 -21 14 -5 8 -11 9 -15 3z"/>
<path d="M6390 900 c8 -5 20 -10 25 -10 6 0 3 5 -5 10 -8 5 -19 10 -25 10 -5
0 -3 -5 5 -10z"/>
<path d="M6325 870 c3 -5 11 -10 16 -10 6 0 7 5 4 10 -3 6 -11 10 -16 10 -6 0
-7 -4 -4 -10z"/>
<path d="M6390 876 c0 -2 7 -7 16 -10 8 -3 12 -2 9 4 -6 10 -25 14 -25 6z"/>
<path d="M6300 852 c0 -4 10 -9 22 -9 18 -2 20 0 8 7 -18 12 -30 13 -30 2z"/>
<path d="M6350 847 c0 -2 6 -10 14 -16 11 -9 16 -9 22 1 4 7 4 10 -1 6 -4 -4
-14 -3 -22 3 -7 6 -13 9 -13 6z"/>
<path d="M6310 821 c0 -7 -5 -9 -12 -5 -7 5 -8 3 -3 -5 5 -9 10 -10 18 -2 6 6
8 14 4 18 -4 3 -7 1 -7 -6z"/>
<path d="M6218 801 c-8 -10 -22 -21 -29 -23 -8 -3 -11 -8 -8 -12 3 -3 18 5 33
19 33 30 33 31 39 3 5 -21 5 -21 4 1 -2 31 -18 36 -39 12z"/>
<path d="M6282 794 c10 -10 20 -16 22 -13 3 3 -5 11 -17 18 -21 13 -21 12 -5
-5z"/>
<path d="M6200 744 c0 -8 -4 -13 -8 -10 -5 3 -16 -4 -25 -15 -9 -10 -12 -19
-7 -19 6 0 13 6 16 14 3 8 13 13 23 11 11 -2 17 3 17 16 0 10 -4 19 -8 19 -4
0 -8 -7 -8 -16z"/>
<path d="M6103 722 c-9 -5 -6 -12 10 -21 21 -13 21 -13 7 4 -14 17 -13 18 3
12 11 -4 16 -3 12 3 -7 12 -16 12 -32 2z"/>
<path d="M5918 691 c-17 -10 -26 -22 -23 -31 3 -11 -2 -16 -15 -16 -23 0 -25
7 -7 25 6 8 0 6 -15 -4 -16 -9 -28 -13 -28 -9 0 5 -5 1 -11 -8 -5 -10 -15 -18
-20 -18 -6 0 -7 5 -3 12 4 7 3 8 -4 4 -17 -10 -15 -26 4 -26 10 0 14 -6 11
-14 -3 -7 0 -19 6 -26 10 -10 8 -12 -6 -7 -10 4 -16 3 -12 -2 3 -5 0 -11 -7
-13 -7 -3 -5 -7 6 -11 9 -4 15 -3 12 2 -3 5 1 12 10 15 9 3 12 11 8 18 -23 38
10 85 36 53 7 -9 18 -15 24 -14 24 3 37 -1 31 -11 -4 -6 1 -7 12 -3 16 6 16 5
4 -10 -8 -10 -12 -19 -10 -22 3 -2 10 5 17 16 11 17 9 21 -13 31 -24 11 -24
12 -8 28 10 10 23 15 28 12 6 -3 4 2 -4 11 -9 12 -10 17 -2 17 6 0 14 -7 17
-15 4 -11 13 -13 28 -9 17 5 19 4 9 -7 -7 -7 -13 -20 -12 -28 0 -10 4 -7 9 7
11 27 9 37 -8 37 -8 0 -19 7 -25 16 -11 14 -15 14 -39 0z m7 -21 c-3 -5 -11
-10 -16 -10 -6 0 -7 5 -4 10 3 6 11 10 16 10 6 0 7 -4 4 -10z"/>
<path d="M6083 693 c9 -2 14 -9 11 -15 -4 -7 -2 -8 5 -4 15 10 4 26 -17 25
-15 -1 -15 -2 1 -6z"/>
<path d="M6015 680 c3 -5 8 -10 11 -10 2 0 4 5 4 10 0 6 -5 10 -11 10 -5 0 -7
-4 -4 -10z"/>
<path d="M6124 675 c-10 -8 -14 -15 -8 -15 6 0 17 7 24 15 16 19 9 19 -16 0z"/>
<path d="M6040 659 c0 -5 -4 -8 -9 -4 -6 3 -15 -5 -21 -17 -10 -21 -10 -22 4
-5 8 10 18 18 22 17 5 -1 10 3 12 9 2 6 1 11 -2 11 -3 0 -6 -5 -6 -11z"/>
<path d="M4020 635 c-7 -8 -9 -15 -4 -16 5 -1 -2 -5 -16 -10 l-25 -8 25 2 c14
1 25 7 25 12 0 6 4 16 8 23 11 17 2 15 -13 -3z"/>
<path d="M5936 641 c-4 -5 3 -7 14 -4 23 6 26 13 6 13 -8 0 -17 -4 -20 -9z"/>
<path d="M4106 627 c3 -10 9 -15 12 -12 3 3 0 11 -7 18 -10 9 -11 8 -5 -6z"/>
<path d="M6037 621 c-10 -14 -10 -14 4 -4 9 7 18 10 21 7 3 -3 8 -1 12 4 9 16
-24 9 -37 -7z"/>
<path d="M3960 619 c0 -5 -4 -7 -10 -4 -5 3 -10 1 -10 -4 0 -6 5 -11 11 -11 5
0 8 -4 5 -8 -2 -4 5 -9 17 -9 19 -2 20 -1 5 8 -10 5 -15 16 -12 24 4 8 3 15 0
15 -3 0 -6 -5 -6 -11z"/>
<path d="M4070 620 c0 -5 5 -10 10 -10 6 0 10 5 10 10 0 6 -4 10 -10 10 -5 0
-10 -4 -10 -10z"/>
<path d="M5850 610 c13 -11 25 -20 28 -20 3 0 -3 9 -13 20 -10 11 -23 20 -28
20 -6 0 0 -9 13 -20z"/>
<path d="M6093 615 c0 -8 4 -12 9 -9 5 3 6 10 3 15 -9 13 -12 11 -12 -6z"/>
<path d="M4173 602 c0 -11 5 -18 11 -15 6 4 6 -1 2 -13 -5 -14 -4 -16 5 -7 9
9 8 17 -4 34 -16 21 -16 21 -14 1z"/>
<path d="M5830 601 c0 -10 19 -25 25 -20 1 2 -3 10 -11 17 -8 7 -14 8 -14 3z"/>
<path d="M5890 601 c0 -6 4 -13 10 -16 6 -3 7 1 4 9 -7 18 -14 21 -14 7z"/>
<path d="M5981 594 c0 -11 3 -14 6 -6 3 7 2 16 -1 19 -3 4 -6 -2 -5 -13z"/>
<path d="M4050 592 c0 -5 7 -9 15 -9 8 0 12 4 9 9 -3 4 -9 8 -15 8 -5 0 -9 -4
-9 -8z"/>
<path d="M4090 593 c0 -5 14 -9 31 -9 35 -2 33 5 -5 12 -14 2 -26 1 -26 -3z"/>
<path d="M4261 593 c1 -4 0 -10 -1 -13 -1 -3 -3 -15 -4 -27 -2 -19 0 -21 12
-11 10 9 11 13 3 16 -9 3 -9 8 -1 17 8 9 8 15 0 20 -6 4 -10 3 -9 -2z"/>
<path d="M5953 582 c-8 -14 -8 -19 1 -19 7 0 13 9 13 19 1 10 1 18 0 18 -1 0
-7 -8 -14 -18z"/>
<path d="M4215 573 c3 -3 -2 -14 -11 -24 -10 -11 -12 -19 -4 -24 6 -4 9 -1 8
7 -2 7 2 12 9 11 12 -2 12 23 0 32 -4 3 -5 2 -2 -2z"/>
<path d="M5576 563 c-5 -12 -9 -13 -21 -3 -12 10 -20 9 -41 -5 -25 -16 -25
-17 -7 -31 17 -14 16 -15 -7 -8 -14 3 -22 3 -18 -1 4 -4 19 -9 34 -11 25 -2
25 -2 8 17 -9 10 -15 22 -12 25 8 7 49 -47 43 -56 -3 -5 -1 -11 4 -14 5 -4 8
2 6 11 -2 10 -4 21 -4 25 -1 4 -8 14 -17 23 -19 19 -11 33 10 16 10 -8 16 -9
21 -1 3 5 11 10 17 10 6 0 3 -9 -7 -20 -23 -25 -11 -26 14 -1 17 17 17 19 0
29 -13 9 -19 8 -23 -5z"/>
<path d="M5875 571 c3 -6 -3 -14 -12 -20 -10 -6 -13 -11 -7 -11 12 0 34 20 34
32 0 4 -5 8 -11 8 -5 0 -8 -4 -4 -9z"/>
<path d="M6015 570 c3 -5 8 -10 11 -10 2 0 4 5 4 10 0 6 -5 10 -11 10 -5 0 -7
-4 -4 -10z"/>
<path d="M3741 554 c0 -11 3 -14 6 -6 3 7 2 16 -1 19 -3 4 -6 -2 -5 -13z"/>
<path d="M3771 554 c0 -11 3 -14 6 -6 3 7 2 16 -1 19 -3 4 -6 -2 -5 -13z"/>
<path d="M3960 561 c0 -6 4 -13 10 -16 6 -3 7 1 4 9 -7 18 -14 21 -14 7z"/>
<path d="M4056 557 c3 -10 9 -15 12 -12 3 3 0 11 -7 18 -10 9 -11 8 -5 -6z"/>
<path d="M4494 549 c-3 -6 -1 -16 5 -22 6 -6 11 -7 11 -1 0 5 5 2 11 -6 9 -13
10 -13 6 0 -2 8 -10 14 -17 12 -8 -2 -10 3 -7 13 7 17 1 20 -9 4z"/>
<path d="M5456 552 c-2 -4 -1 -14 3 -21 6 -9 11 -10 15 -2 4 6 2 11 -4 11 -6
0 -8 5 -5 10 3 6 4 10 1 10 -3 0 -7 -4 -10 -8z"/>
<path d="M3900 546 c0 -2 7 -7 16 -10 8 -3 12 -2 9 4 -6 10 -25 14 -25 6z"/>
<path d="M4310 540 c-13 -8 -12 -10 3 -10 9 0 17 5 17 10 0 12 -1 12 -20 0z"/>
<path d="M4556 535 c-9 -26 -7 -32 5 -12 6 10 9 21 6 23 -2 3 -7 -2 -11 -11z"/>
<path d="M5398 540 c17 -20 15 -35 -3 -20 -9 7 -17 11 -19 9 -2 -2 6 -11 18
-20 21 -16 22 -16 23 1 1 10 -6 24 -15 31 -14 11 -15 11 -4 -1z"/>
<path d="M5670 542 c0 -6 9 -12 20 -15 11 -3 20 -3 20 -1 0 2 -9 8 -20 14 -11
6 -20 7 -20 2z"/>
<path d="M5756 537 c3 -10 9 -15 12 -12 3 3 0 11 -7 18 -10 9 -11 8 -5 -6z"/>
<path d="M3879 530 c-3 -20 -4 -25 -14 -40 -7 -13 -6 -13 8 -2 9 8 20 11 25 8
5 -3 9 1 9 8 0 8 -6 12 -14 9 -9 -4 -11 0 -7 11 3 9 3 16 0 16 -3 0 -7 -4 -7
-10z"/>
<path d="M4420 536 c0 -2 7 -6 15 -10 8 -3 15 -1 15 4 0 6 -7 10 -15 10 -8 0
-15 -2 -15 -4z"/>
<path d="M4660 529 c0 -5 5 -7 10 -4 6 3 10 8 10 11 0 2 -4 4 -10 4 -5 0 -10
-5 -10 -11z"/>
<path d="M5342 520 c7 -11 17 -20 22 -20 5 0 1 9 -9 20 -10 11 -20 20 -22 20
-2 0 2 -9 9 -20z"/>
<path d="M5735 533 c3 -3 -3 -12 -13 -19 -14 -10 -15 -15 -4 -26 11 -11 12
-10 6 6 -6 15 -4 18 8 13 16 -6 20 16 5 28 -4 3 -5 2 -2 -2z"/>
<path d="M5827 529 c7 -9 10 -19 6 -22 -3 -4 -1 -7 5 -7 17 0 15 16 -5 31 -16
12 -17 12 -6 -2z"/>
<path d="M3735 519 c-4 -6 -5 -12 -2 -15 2 -3 7 2 10 11 7 17 1 20 -8 4z"/>
<path d="M3776 517 c3 -8 11 -14 19 -14 20 0 19 4 -5 17 -15 8 -18 8 -14 -3z"/>
<path d="M3930 520 c-11 -7 -11 -10 -2 -10 8 0 10 -5 6 -12 -4 -7 -3 -9 1 -5
7 6 17 37 12 37 -1 0 -9 -5 -17 -10z"/>
<path d="M4730 519 c0 -5 5 -7 10 -4 6 3 10 8 10 11 0 2 -4 4 -10 4 -5 0 -10
-5 -10 -11z"/>
<path d="M4756 515 c-3 -8 -1 -15 4 -15 6 0 10 7 10 15 0 8 -2 15 -4 15 -2 0
-6 -7 -10 -15z"/>
<path d="M4825 510 c-10 -11 -16 -20 -14 -21 35 -7 51 -3 64 17 13 21 13 23 0
18 -8 -4 -15 -12 -15 -20 0 -8 -6 -11 -15 -8 -12 5 -13 10 -4 20 18 22 4 16
-16 -6z"/>
<path d="M4896 514 c-8 -21 1 -34 19 -28 18 7 27 32 13 40 -6 4 -8 3 -5 -3 4
-6 -1 -17 -10 -24 -14 -12 -15 -11 -9 9 8 25 1 30 -8 6z"/>
<path d="M5033 515 c0 -7 9 -17 19 -24 11 -7 18 -7 18 -1 0 5 -5 10 -11 10 -5
0 -8 4 -5 9 3 5 0 11 -7 14 -8 3 -14 -1 -14 -8z"/>
<path d="M4275 510 c-3 -5 -1 -10 4 -10 6 0 11 5 11 10 0 6 -2 10 -4 10 -3 0
-8 -4 -11 -10z"/>
<path d="M4466 512 c-2 -4 4 -8 14 -8 10 0 16 4 14 8 -3 4 -9 8 -14 8 -5 0
-11 -4 -14 -8z"/>
<path d="M4676 511 c-3 -5 6 -8 20 -8 19 0 22 2 13 8 -18 11 -26 11 -33 0z"/>
<path d="M4976 503 c2 -7 -1 -13 -5 -13 -5 0 -12 6 -14 13 -4 9 -6 9 -6 0 -2
-21 21 -26 37 -8 10 10 12 15 5 11 -6 -3 -13 -3 -16 1 -2 5 -2 2 -1 -4z"/>
<path d="M5100 509 c0 -5 -6 -7 -12 -3 -7 4 -6 -1 4 -11 16 -18 39 -13 37 8 0
9 -2 9 -6 0 -2 -7 -9 -13 -14 -13 -4 0 -6 7 -3 15 4 8 3 15 0 15 -3 0 -6 -5
-6 -11z"/>
<path d="M5640 510 c-12 -7 -10 -9 8 -7 12 0 22 5 22 9 0 11 -12 10 -30 -2z"/>
<path d="M5873 505 c0 -8 4 -12 9 -9 5 3 6 10 3 15 -9 13 -12 11 -12 -6z"/>
<path d="M3827 489 c7 -7 15 -10 18 -7 3 3 -2 9 -12 12 -14 6 -15 5 -6 -5z"/>
<path d="M4500 490 c-9 -6 -10 -10 -3 -10 6 0 15 5 18 10 8 12 4 12 -15 0z"/>
<path d="M4650 495 c5 -22 -1 -29 -11 -15 -8 12 -10 12 -7 1 5 -18 37 -23 34
-5 -1 7 -6 17 -10 21 -4 4 -7 4 -6 -2z"/>
<path d="M4734 492 c5 -8 -1 -12 -16 -13 -18 -1 -19 -2 -4 -6 23 -6 43 12 25
22 -8 5 -10 4 -5 -3z"/>
<path d="M4994 478 l-19 -23 23 19 c22 19 22 19 23 -5 1 -19 2 -20 6 -5 8 30
-12 39 -33 14z"/>
<path d="M5775 490 c3 -5 8 -10 11 -10 2 0 4 5 4 10 0 6 -5 10 -11 10 -5 0 -7
-4 -4 -10z"/>
<path d="M4778 478 c5 -5 16 -8 23 -6 8 3 3 7 -10 11 -17 4 -21 3 -13 -5z"/>
<path d="M4520 465 c-7 -9 -11 -17 -9 -20 3 -2 10 5 17 15 14 24 10 26 -8 5z"/>
<path d="M4550 469 c0 -5 5 -7 10 -4 6 3 10 8 10 11 0 2 -4 4 -10 4 -5 0 -10
-5 -10 -11z"/>
<path d="M4865 469 c-11 -16 -1 -19 13 -3 7 8 8 14 3 14 -5 0 -13 -5 -16 -11z"/>
<path d="M4930 472 c0 -4 10 -9 22 -9 18 -2 20 0 8 7 -18 12 -30 13 -30 2z"/>
<path d="M5064 465 c-18 -14 -18 -14 4 -8 12 3 22 9 22 14 0 12 -3 11 -26 -6z"/>
<path d="M5133 473 c9 -8 47 -11 47 -4 0 5 -11 9 -25 9 -14 0 -24 -2 -22 -5z"/>
<path d="M5220 469 c0 -4 10 -6 21 -4 32 6 34 13 4 13 -14 0 -25 -4 -25 -9z"/>
<path d="M5399 463 c-12 -16 -12 -17 2 -6 9 7 19 10 22 6 4 -3 7 -1 7 5 0 17
-16 15 -31 -5z"/>
<path d="M5508 473 c6 -2 9 -10 6 -15 -4 -7 -2 -8 5 -4 13 9 5 26 -12 25 -9 0
-8 -2 1 -6z"/>
<path d="M4751 457 c-8 -10 -7 -14 2 -14 8 0 14 6 14 14 0 7 -1 13 -2 13 -2 0
-8 -6 -14 -13z"/>
<path d="M4895 460 c-3 -6 1 -7 9 -4 18 7 21 14 7 14 -6 0 -13 -4 -16 -10z"/>
<path d="M3875 450 c3 -5 8 -10 11 -10 2 0 4 5 4 10 0 6 -5 10 -11 10 -5 0 -7
-4 -4 -10z"/>
<path d="M4996 452 c-2 -4 -1 -14 3 -21 6 -9 11 -10 15 -2 4 6 2 11 -4 11 -6
0 -8 5 -5 10 3 6 4 10 1 10 -3 0 -7 -4 -10 -8z"/>
<path d="M5119 458 c-6 -21 -5 -37 2 -32 5 3 6 10 3 16 -5 8 -1 9 10 5 10 -4
15 -3 11 3 -5 9 -24 14 -26 8z"/>
<path d="M5193 438 c-2 -18 0 -20 7 -8 12 18 13 30 2 30 -4 0 -9 -10 -9 -22z"/>
<path d="M5268 441 c4 -10 1 -12 -9 -6 -8 5 -11 4 -6 0 11 -13 38 -15 31 -3
-4 6 0 14 7 19 10 6 8 8 -8 7 -14 -2 -19 -7 -15 -17z"/>
<path d="M4904 428 l-19 -23 23 19 c12 11 22 21 22 23 0 8 -8 2 -26 -19z"/>
<path d="M5553 425 c0 -8 4 -12 9 -9 5 3 6 10 3 15 -9 13 -12 11 -12 -6z"/>
<path d="M4850 416 c0 -2 7 -7 16 -10 8 -3 12 -2 9 4 -6 10 -25 14 -25 6z"/>
<path d="M5350 416 c0 -2 7 -7 16 -10 8 -3 12 -2 9 4 -6 10 -25 14 -25 6z"/>
<path d="M5425 410 c-3 -6 1 -7 9 -4 18 7 21 14 7 14 -6 0 -13 -4 -16 -10z"/>
<path d="M4996 392 c-3 -5 1 -9 9 -9 8 0 12 4 9 9 -3 4 -7 8 -9 8 -2 0 -6 -4
-9 -8z"/>
</g>
</svg>
